<svg xmlns="http://www.w3.org/2000/svg" xmlns:xlink="http://www.w3.org/1999/xlink" width="250" zoomAndPan="magnify" viewBox="0 0 187.5 74.999997" height="100" preserveAspectRatio="xMidYMid meet" version="1.2"><defs><clipPath id="1b1540d184"><path d="M 61 0.101562 L 63 0.101562 L 63 74.898438 L 61 74.898438 Z M 61 0.101562 "/></clipPath></defs><g id="4b89fb6484"><path style=" stroke:none;fill-rule:nonzero;fill:#100937;fill-opacity:1;" d="M 35.449219 8.664062 C 35.496094 8.707031 35.542969 8.75 35.59375 8.796875 C 35.714844 8.90625 35.835938 9.015625 35.960938 9.121094 C 36.128906 9.265625 36.285156 9.417969 36.4375 9.578125 C 36.8125 9.964844 37.191406 10.21875 37.671875 10.453125 C 39.585938 11.386719 41.136719 12.796875 41.847656 14.84375 C 42.074219 15.554688 42.191406 16.285156 42.226562 17.03125 C 42.230469 17.074219 42.230469 17.113281 42.234375 17.160156 C 42.238281 17.277344 42.242188 17.394531 42.246094 17.511719 C 42.296875 17.921875 42.445312 18.164062 42.75 18.441406 C 44.105469 19.820312 44.738281 21.578125 44.730469 23.507812 C 44.730469 23.585938 44.730469 23.660156 44.730469 23.738281 C 44.722656 24.328125 44.671875 24.886719 44.535156 25.460938 C 44.523438 25.503906 44.515625 25.542969 44.503906 25.585938 C 44.261719 26.597656 43.8125 27.503906 43.191406 28.335938 C 42.863281 28.785156 42.753906 29.238281 42.671875 29.78125 C 42.367188 31.535156 41.25 33.109375 39.820312 34.136719 C 38.785156 34.847656 37.636719 35.285156 36.394531 35.421875 C 35.414062 35.53125 34.605469 35.882812 33.714844 36.292969 C 33.160156 36.542969 32.597656 36.765625 31.988281 36.808594 C 31.789062 36.835938 31.605469 36.898438 31.417969 36.960938 C 30.179688 37.3125 28.914062 36.957031 27.8125 36.375 C 27.125 35.964844 26.570312 35.363281 26.035156 34.773438 C 25.878906 34.601562 25.722656 34.433594 25.550781 34.28125 C 24.429688 33.261719 24.152344 31.476562 24.050781 30.035156 C 24.03125 29.59375 24.039062 29.152344 24.042969 28.710938 C 24.046875 28.558594 24.046875 28.40625 24.046875 28.257812 C 24.050781 27.769531 24.054688 27.285156 24.0625 26.800781 C 24.066406 26.59375 24.066406 26.382812 24.070312 26.171875 C 24.089844 24.554688 24.113281 22.933594 24.136719 21.3125 C 24.144531 20.855469 24.152344 20.398438 24.15625 19.9375 C 24.183594 18.128906 24.210938 16.320312 24.242188 14.511719 C 24.246094 14.445312 24.246094 14.378906 24.246094 14.308594 C 24.261719 13.4375 24.277344 12.5625 24.292969 11.6875 C 24.296875 11.4375 24.304688 11.183594 24.308594 10.933594 C 24.3125 10.640625 24.320312 10.347656 24.324219 10.054688 C 24.328125 9.945312 24.328125 9.839844 24.332031 9.734375 C 24.339844 9.203125 24.359375 8.679688 24.417969 8.15625 C 24.421875 8.109375 24.425781 8.066406 24.433594 8.023438 C 24.476562 7.660156 24.558594 7.34375 24.71875 7.015625 C 24.734375 6.980469 24.753906 6.945312 24.769531 6.910156 C 24.828125 6.796875 24.886719 6.683594 24.945312 6.570312 C 24.972656 6.515625 24.972656 6.515625 25 6.460938 C 25.15625 6.1875 25.316406 6.097656 25.613281 6.003906 C 28.988281 5.179688 32.910156 6.382812 35.449219 8.664062 Z M 35.449219 8.664062 "/><path style=" stroke:none;fill-rule:nonzero;fill:#100937;fill-opacity:1;" d="M 83.855469 39.855469 C 83.929688 39.855469 83.929688 39.855469 84.007812 39.855469 C 84.058594 39.855469 84.113281 39.855469 84.164062 39.855469 C 84.339844 39.855469 84.511719 39.855469 84.6875 39.855469 C 84.804688 39.855469 84.925781 39.855469 85.046875 39.855469 C 85.363281 39.855469 85.679688 39.855469 85.996094 39.855469 C 86.316406 39.859375 86.640625 39.859375 86.964844 39.859375 C 87.597656 39.859375 88.230469 39.859375 88.863281 39.859375 C 89.882812 42.96875 89.882812 42.96875 90.359375 44.4375 C 90.652344 45.332031 90.945312 46.230469 91.238281 47.128906 C 91.265625 47.21875 91.265625 47.21875 91.296875 47.3125 C 91.4375 47.742188 91.578125 48.175781 91.71875 48.609375 C 91.882812 49.101562 92.042969 49.59375 92.203125 50.089844 C 92.234375 50.179688 92.234375 50.179688 92.265625 50.273438 C 92.554688 51.167969 92.847656 52.0625 93.140625 52.960938 C 93.421875 53.820312 93.699219 54.679688 93.980469 55.539062 C 94.296875 56.503906 94.609375 57.46875 94.925781 58.433594 C 95.183594 59.234375 95.445312 60.03125 95.707031 60.828125 C 95.765625 61.011719 95.824219 61.195312 95.886719 61.378906 C 96.066406 61.933594 96.246094 62.484375 96.425781 63.035156 C 96.507812 63.273438 96.585938 63.511719 96.664062 63.753906 C 96.699219 63.867188 96.738281 63.976562 96.773438 64.089844 C 96.824219 64.246094 96.875 64.402344 96.925781 64.558594 C 96.941406 64.601562 96.957031 64.648438 96.972656 64.695312 C 97.03125 64.875 97.074219 65.019531 97.074219 65.210938 C 95.484375 65.210938 93.894531 65.210938 92.257812 65.210938 C 92.015625 64.421875 91.777344 63.632812 91.550781 62.839844 C 91.527344 62.753906 91.5 62.664062 91.476562 62.574219 C 91.410156 62.347656 91.34375 62.117188 91.28125 61.890625 C 91.214844 61.660156 91.148438 61.429688 91.082031 61.199219 C 90.988281 60.859375 90.890625 60.519531 90.792969 60.179688 C 90.625 59.59375 90.460938 59.011719 90.292969 58.425781 C 87.503906 58.40625 84.714844 58.386719 81.84375 58.367188 C 81.824219 58.503906 81.804688 58.640625 81.785156 58.785156 C 81.753906 58.90625 81.71875 59.03125 81.683594 59.152344 C 81.664062 59.222656 81.644531 59.292969 81.621094 59.367188 C 81.601562 59.441406 81.578125 59.519531 81.554688 59.59375 C 81.53125 59.675781 81.507812 59.757812 81.484375 59.835938 C 81.4375 60.007812 81.386719 60.179688 81.335938 60.351562 C 81.257812 60.617188 81.179688 60.882812 81.105469 61.152344 C 81.027344 61.417969 80.949219 61.683594 80.871094 61.953125 C 80.65625 62.703125 80.4375 63.453125 80.226562 64.207031 C 80.128906 64.539062 80.035156 64.867188 79.9375 65.210938 C 78.386719 65.230469 76.835938 65.25 75.238281 65.269531 C 75.441406 64.449219 75.441406 64.449219 75.570312 64.074219 C 75.582031 64.03125 75.597656 63.988281 75.613281 63.941406 C 75.660156 63.804688 75.707031 63.664062 75.75 63.523438 C 75.785156 63.421875 75.816406 63.324219 75.851562 63.222656 C 75.921875 63.011719 75.992188 62.796875 76.0625 62.585938 C 76.246094 62.03125 76.429688 61.472656 76.613281 60.914062 C 76.632812 60.859375 76.652344 60.804688 76.667969 60.75 C 76.949219 59.898438 77.226562 59.042969 77.5 58.1875 C 77.933594 56.820312 78.382812 55.460938 78.832031 54.097656 C 79.246094 52.84375 79.660156 51.59375 80.058594 50.332031 C 80.476562 49.011719 80.910156 47.695312 81.34375 46.378906 C 81.363281 46.328125 81.378906 46.273438 81.398438 46.21875 C 81.484375 45.953125 81.574219 45.6875 81.660156 45.421875 C 81.675781 45.371094 81.695312 45.320312 81.710938 45.265625 C 81.746094 45.164062 81.78125 45.0625 81.8125 44.960938 C 82.085938 44.132812 82.359375 43.304688 82.628906 42.476562 C 82.644531 42.425781 82.660156 42.375 82.675781 42.324219 C 82.828125 41.859375 82.976562 41.394531 83.125 40.929688 C 83.160156 40.820312 83.160156 40.820312 83.195312 40.710938 C 83.238281 40.582031 83.277344 40.453125 83.316406 40.324219 C 83.335938 40.269531 83.351562 40.21875 83.367188 40.160156 C 83.382812 40.117188 83.398438 40.070312 83.414062 40.023438 C 83.492188 39.800781 83.640625 39.855469 83.855469 39.855469 Z M 86.007812 43.429688 C 85.988281 43.507812 85.988281 43.507812 85.96875 43.585938 C 85.335938 46.050781 84.695312 48.515625 83.984375 50.960938 C 83.917969 51.1875 83.855469 51.414062 83.789062 51.640625 C 83.777344 51.679688 83.765625 51.71875 83.753906 51.761719 C 83.695312 51.96875 83.632812 52.175781 83.574219 52.382812 C 83.550781 52.464844 83.527344 52.546875 83.503906 52.628906 C 83.492188 52.667969 83.480469 52.710938 83.46875 52.75 C 83.398438 52.988281 83.332031 53.226562 83.261719 53.464844 C 83.207031 53.648438 83.15625 53.828125 83.105469 54.007812 C 83.085938 54.074219 83.066406 54.140625 83.046875 54.210938 C 83.019531 54.300781 83.019531 54.300781 82.992188 54.390625 C 82.96875 54.472656 82.96875 54.472656 82.945312 54.550781 C 82.910156 54.675781 82.910156 54.675781 82.914062 54.796875 C 85.015625 54.796875 87.117188 54.796875 89.28125 54.796875 C 89.101562 54.066406 89.101562 54.066406 88.902344 53.34375 C 88.886719 53.300781 88.875 53.257812 88.863281 53.214844 C 88.835938 53.121094 88.808594 53.03125 88.785156 52.941406 C 88.726562 52.742188 88.667969 52.539062 88.609375 52.339844 C 88.5625 52.175781 88.515625 52.015625 88.46875 51.851562 C 87.816406 49.613281 87.199219 47.371094 86.601562 45.117188 C 86.589844 45.066406 86.574219 45.011719 86.5625 44.957031 C 86.496094 44.710938 86.429688 44.460938 86.363281 44.210938 C 86.339844 44.125 86.316406 44.039062 86.296875 43.953125 C 86.277344 43.875 86.257812 43.800781 86.234375 43.722656 C 86.195312 43.554688 86.195312 43.554688 86.128906 43.429688 C 86.085938 43.429688 86.046875 43.429688 86.007812 43.429688 Z M 86.007812 43.429688 "/><path style=" stroke:none;fill-rule:nonzero;fill:#100937;fill-opacity:1;" d="M 21.476562 45.839844 C 21.523438 45.835938 21.566406 45.835938 21.609375 45.835938 C 21.757812 45.835938 21.902344 45.835938 22.046875 45.835938 C 22.148438 45.835938 22.25 45.835938 22.351562 45.832031 C 22.5625 45.832031 22.773438 45.832031 22.988281 45.832031 C 23.257812 45.835938 23.53125 45.832031 23.800781 45.828125 C 24.011719 45.828125 24.21875 45.828125 24.429688 45.828125 C 24.527344 45.828125 24.628906 45.828125 24.726562 45.824219 C 25.605469 45.816406 25.605469 45.816406 25.875 46.023438 C 26.15625 46.304688 26.234375 46.78125 26.3125 47.15625 C 26.320312 47.199219 26.332031 47.242188 26.339844 47.285156 C 26.371094 47.429688 26.402344 47.574219 26.433594 47.71875 C 26.457031 47.824219 26.476562 47.929688 26.5 48.035156 C 26.550781 48.265625 26.601562 48.496094 26.648438 48.726562 C 26.773438 49.304688 26.894531 49.878906 27.019531 50.457031 C 27.050781 50.597656 27.082031 50.734375 27.109375 50.875 C 27.515625 52.765625 27.933594 54.652344 28.347656 56.539062 C 28.417969 56.851562 28.484375 57.164062 28.554688 57.476562 C 28.601562 57.691406 28.648438 57.910156 28.699219 58.125 C 28.78125 58.503906 28.863281 58.886719 28.949219 59.265625 C 28.992188 59.472656 29.039062 59.679688 29.085938 59.886719 C 29.09375 59.925781 29.101562 59.964844 29.109375 60.007812 C 29.238281 60.589844 29.367188 61.167969 29.5 61.75 C 29.554688 61.992188 29.609375 62.234375 29.664062 62.476562 C 29.707031 62.667969 29.75 62.859375 29.796875 63.050781 C 29.84375 63.257812 29.890625 63.46875 29.9375 63.675781 C 29.957031 63.765625 29.957031 63.765625 29.980469 63.855469 C 30.097656 64.394531 30.207031 65.027344 29.914062 65.523438 C 29.777344 65.707031 29.628906 65.863281 29.464844 66.023438 C 29.429688 66.058594 29.394531 66.09375 29.359375 66.128906 C 29.246094 66.242188 29.132812 66.351562 29.019531 66.464844 C 28.941406 66.539062 28.867188 66.613281 28.792969 66.6875 C 28.71875 66.757812 28.644531 66.832031 28.574219 66.902344 C 28.539062 66.9375 28.507812 66.96875 28.472656 67.003906 C 28.300781 67.171875 28.128906 67.332031 27.945312 67.488281 C 27.714844 67.691406 27.492188 67.902344 27.277344 68.121094 C 27.21875 68.179688 27.21875 68.179688 27.160156 68.238281 C 27.074219 68.324219 26.992188 68.40625 26.910156 68.488281 C 26.777344 68.621094 26.644531 68.753906 26.515625 68.886719 C 26.234375 69.164062 25.957031 69.445312 25.679688 69.726562 C 25.355469 70.050781 25.03125 70.375 24.707031 70.699219 C 24.574219 70.832031 24.445312 70.960938 24.316406 71.09375 C 24.238281 71.171875 24.160156 71.25 24.078125 71.328125 C 24.042969 71.367188 24.007812 71.402344 23.96875 71.441406 C 23.753906 71.65625 23.640625 71.765625 23.335938 71.773438 C 23.292969 71.777344 23.246094 71.777344 23.199219 71.78125 C 22.761719 71.707031 22.433594 71.269531 22.136719 70.96875 C 22.078125 70.914062 22.023438 70.859375 21.96875 70.804688 C 21.816406 70.652344 21.664062 70.5 21.515625 70.347656 C 21.355469 70.191406 21.199219 70.03125 21.039062 69.875 C 20.773438 69.609375 20.507812 69.339844 20.242188 69.074219 C 19.933594 68.765625 19.628906 68.460938 19.320312 68.152344 C 18.992188 67.824219 18.664062 67.496094 18.339844 67.167969 C 18.242188 67.074219 18.148438 66.980469 18.054688 66.886719 C 17.878906 66.710938 17.703125 66.535156 17.53125 66.359375 C 17.453125 66.28125 17.453125 66.28125 17.371094 66.203125 C 17.300781 66.128906 17.300781 66.128906 17.226562 66.054688 C 17.183594 66.015625 17.144531 65.972656 17.101562 65.929688 C 16.726562 65.53125 16.613281 65.183594 16.617188 64.644531 C 16.632812 64.378906 16.691406 64.121094 16.746094 63.859375 C 16.765625 63.765625 16.765625 63.765625 16.785156 63.671875 C 16.828125 63.464844 16.871094 63.261719 16.914062 63.054688 C 16.945312 62.910156 16.976562 62.761719 17.003906 62.617188 C 17.078125 62.265625 17.152344 61.917969 17.226562 61.566406 C 17.285156 61.28125 17.347656 60.996094 17.40625 60.710938 C 17.640625 59.59375 17.878906 58.472656 18.113281 57.355469 C 18.140625 57.226562 18.167969 57.09375 18.195312 56.964844 C 18.714844 54.523438 19.25 52.089844 19.835938 49.667969 C 19.886719 49.460938 19.933594 49.253906 19.984375 49.046875 C 19.992188 49.007812 20.003906 48.96875 20.011719 48.929688 C 20.160156 48.316406 20.285156 47.699219 20.390625 47.078125 C 20.464844 46.65625 20.554688 46.289062 20.859375 45.980469 C 21.070312 45.84375 21.238281 45.835938 21.476562 45.839844 Z M 21.476562 45.839844 "/><path style=" stroke:none;fill-rule:nonzero;fill:#100937;fill-opacity:1;" d="M 132.777344 16.59375 C 134.289062 16.59375 135.800781 16.59375 137.359375 16.59375 C 137.695312 17.164062 138.027344 17.734375 138.371094 18.320312 C 138.65625 18.804688 138.65625 18.804688 138.945312 19.289062 C 139.203125 19.726562 139.460938 20.167969 139.714844 20.605469 C 139.992188 21.074219 140.265625 21.542969 140.542969 22.011719 C 140.945312 22.691406 141.34375 23.371094 141.746094 24.054688 C 141.898438 24.316406 142.054688 24.582031 142.207031 24.84375 C 142.273438 24.957031 142.339844 25.070312 142.40625 25.183594 C 142.464844 25.285156 142.527344 25.386719 142.585938 25.492188 C 142.644531 25.589844 142.707031 25.691406 142.761719 25.792969 C 142.871094 25.976562 142.980469 26.160156 143.089844 26.34375 C 143.65625 27.28125 144.132812 28.269531 144.617188 29.246094 C 144.714844 29.441406 144.8125 29.636719 144.910156 29.832031 C 145.003906 30.019531 145.097656 30.207031 145.191406 30.394531 C 145.234375 30.484375 145.28125 30.574219 145.324219 30.664062 C 145.386719 30.785156 145.449219 30.910156 145.507812 31.035156 C 145.527344 31.070312 145.546875 31.105469 145.566406 31.144531 C 145.691406 31.398438 145.691406 31.398438 145.691406 31.53125 C 145.730469 31.53125 145.769531 31.53125 145.808594 31.53125 C 145.800781 31.488281 145.796875 31.445312 145.789062 31.398438 C 145.679688 30.6875 145.613281 29.972656 145.542969 29.257812 C 145.53125 29.160156 145.53125 29.160156 145.523438 29.058594 C 145.316406 26.988281 145.203125 24.933594 145.207031 22.855469 C 145.207031 22.632812 145.207031 22.414062 145.207031 22.191406 C 145.210938 21.777344 145.210938 21.359375 145.210938 20.941406 C 145.210938 20.378906 145.210938 19.816406 145.210938 19.25 C 145.210938 18.367188 145.214844 17.480469 145.214844 16.59375 C 146.609375 16.59375 148.003906 16.59375 149.4375 16.59375 C 149.4375 23.292969 149.4375 29.988281 149.4375 36.886719 C 147.945312 36.886719 146.453125 36.886719 144.917969 36.886719 C 143.765625 34.988281 143.765625 34.988281 143.398438 34.367188 C 143.28125 34.167969 143.164062 33.96875 143.046875 33.773438 C 143.011719 33.714844 143.011719 33.714844 142.976562 33.652344 C 142.761719 33.292969 142.546875 32.933594 142.328125 32.570312 C 142.089844 32.171875 141.847656 31.773438 141.609375 31.371094 C 141.578125 31.3125 141.578125 31.3125 141.539062 31.253906 C 141.492188 31.171875 141.445312 31.089844 141.398438 31.007812 C 141.371094 30.96875 141.347656 30.929688 141.324219 30.886719 C 141.300781 30.847656 141.277344 30.804688 141.253906 30.765625 C 140.964844 30.277344 140.671875 29.792969 140.378906 29.3125 C 140.210938 29.03125 140.039062 28.753906 139.871094 28.472656 C 139.789062 28.339844 139.707031 28.203125 139.625 28.066406 C 138.882812 26.851562 138.242188 25.59375 137.609375 24.316406 C 137.480469 24.054688 137.351562 23.792969 137.222656 23.535156 C 136.96875 23.027344 136.71875 22.519531 136.46875 22.011719 C 136.457031 22.457031 136.496094 22.886719 136.542969 23.332031 C 136.554688 23.445312 136.566406 23.5625 136.578125 23.679688 C 136.601562 23.921875 136.625 24.164062 136.652344 24.40625 C 136.671875 24.601562 136.691406 24.800781 136.710938 25 C 136.726562 25.144531 136.742188 25.292969 136.757812 25.441406 C 136.78125 25.683594 136.804688 25.929688 136.824219 26.175781 C 136.828125 26.234375 136.835938 26.292969 136.839844 26.351562 C 136.941406 27.53125 136.960938 28.707031 136.957031 29.890625 C 136.953125 30.136719 136.953125 30.382812 136.953125 30.632812 C 136.953125 31.097656 136.953125 31.5625 136.953125 32.027344 C 136.949219 32.65625 136.949219 33.289062 136.949219 33.917969 C 136.949219 34.90625 136.945312 35.898438 136.945312 36.886719 C 135.570312 36.886719 134.195312 36.886719 132.777344 36.886719 C 132.777344 30.191406 132.777344 23.492188 132.777344 16.59375 Z M 132.777344 16.59375 "/><path style=" stroke:none;fill-rule:nonzero;fill:#100937;fill-opacity:1;" d="M 100.171875 44.917969 C 112.175781 44.917969 112.175781 44.917969 114.09375 46.765625 C 115.007812 47.71875 115.261719 48.882812 115.253906 50.164062 C 115.222656 51.363281 114.773438 52.410156 113.914062 53.25 C 113.304688 53.792969 112.570312 54.1875 111.773438 54.378906 C 111.773438 54.398438 111.773438 54.417969 111.773438 54.441406 C 111.886719 54.464844 111.886719 54.464844 112 54.488281 C 112.675781 54.644531 113.296875 54.839844 113.914062 55.152344 C 113.980469 55.183594 114.042969 55.21875 114.109375 55.25 C 115.160156 55.820312 115.820312 56.699219 116.175781 57.832031 C 116.578125 59.207031 116.351562 60.785156 115.695312 62.039062 C 115.527344 62.328125 115.324219 62.578125 115.105469 62.828125 C 115.058594 62.890625 115.011719 62.953125 114.964844 63.015625 C 113.949219 64.128906 112.410156 64.671875 110.972656 64.984375 C 110.933594 64.992188 110.890625 65 110.847656 65.011719 C 107.359375 65.726562 103.730469 65.210938 100.171875 65.210938 C 100.171875 58.515625 100.171875 51.816406 100.171875 44.917969 Z M 104.691406 48.25 C 104.691406 49.902344 104.691406 51.550781 104.691406 53.25 C 105.21875 53.253906 105.746094 53.257812 106.292969 53.261719 C 106.457031 53.261719 106.621094 53.265625 106.789062 53.265625 C 108.054688 53.273438 109.464844 53.261719 110.464844 52.355469 C 110.914062 51.84375 111.09375 51.3125 111.085938 50.636719 C 111.085938 50.582031 111.085938 50.53125 111.082031 50.476562 C 111.070312 49.898438 110.921875 49.492188 110.519531 49.070312 C 109.640625 48.261719 108.265625 48.242188 107.140625 48.246094 C 107.046875 48.246094 107.046875 48.246094 106.949219 48.246094 C 106.71875 48.246094 106.488281 48.246094 106.257812 48.246094 C 105.484375 48.25 105.484375 48.25 104.691406 48.25 Z M 104.691406 56.164062 C 104.691406 58.050781 104.691406 59.933594 104.691406 61.878906 C 105.308594 61.882812 105.925781 61.886719 106.5625 61.890625 C 106.753906 61.890625 106.949219 61.890625 107.148438 61.894531 C 108.585938 61.902344 109.910156 61.816406 111.132812 60.96875 C 111.699219 60.402344 111.972656 59.75 111.976562 58.949219 C 111.964844 58.273438 111.773438 57.652344 111.285156 57.164062 C 109.941406 56.027344 108.03125 56.148438 106.378906 56.15625 C 105.546875 56.160156 105.546875 56.160156 104.691406 56.164062 Z M 104.691406 56.164062 "/><path style=" stroke:none;fill-rule:nonzero;fill:#100937;fill-opacity:1;" d="M 135.972656 46.703125 C 136.121094 46.839844 136.265625 46.980469 136.40625 47.121094 C 136.449219 47.164062 136.449219 47.164062 136.492188 47.203125 C 138.550781 49.277344 139.222656 52.28125 139.222656 55.109375 C 139.207031 58.0625 138.378906 60.828125 136.347656 63.007812 C 136.308594 63.050781 136.269531 63.097656 136.226562 63.140625 C 135.128906 64.296875 133.546875 65.09375 132.003906 65.449219 C 131.953125 65.460938 131.902344 65.472656 131.851562 65.484375 C 130.351562 65.808594 128.625 65.851562 127.125 65.507812 C 127.078125 65.496094 127.03125 65.488281 126.984375 65.476562 C 125.21875 65.070312 123.710938 64.285156 122.425781 63.007812 C 122.367188 62.953125 122.3125 62.898438 122.253906 62.84375 C 120.117188 60.625 119.507812 57.425781 119.5625 54.453125 C 119.640625 51.601562 120.5625 48.84375 122.636719 46.832031 C 126.183594 43.644531 132.378906 43.539062 135.972656 46.703125 Z M 127.71875 48.488281 C 127.664062 48.507812 127.613281 48.523438 127.554688 48.542969 C 127.132812 48.691406 126.773438 48.941406 126.410156 49.203125 C 126.355469 49.242188 126.355469 49.242188 126.296875 49.285156 C 124.988281 50.296875 124.5 52.113281 124.292969 53.671875 C 124.078125 55.800781 124.277344 58.320312 125.632812 60.0625 C 125.675781 60.113281 125.714844 60.160156 125.757812 60.210938 C 125.796875 60.261719 125.839844 60.3125 125.882812 60.367188 C 126.683594 61.304688 127.761719 61.792969 128.96875 61.9375 C 130.289062 62.023438 131.472656 61.671875 132.480469 60.804688 C 132.527344 60.765625 132.574219 60.726562 132.625 60.683594 C 133.847656 59.546875 134.425781 57.671875 134.511719 56.042969 C 134.511719 55.914062 134.515625 55.78125 134.515625 55.652344 C 134.515625 55.582031 134.515625 55.582031 134.515625 55.507812 C 134.539062 54.070312 134.539062 54.070312 134.324219 52.65625 C 134.308594 52.582031 134.308594 52.582031 134.289062 52.507812 C 134.050781 51.566406 133.683594 50.683594 133.074219 49.917969 C 133.035156 49.867188 132.996094 49.820312 132.957031 49.769531 C 132.257812 48.933594 131.238281 48.394531 130.160156 48.25 C 129.320312 48.183594 128.519531 48.214844 127.71875 48.488281 Z M 127.71875 48.488281 "/><path style=" stroke:none;fill-rule:nonzero;fill:#100937;fill-opacity:1;" d="M 98.324219 16.59375 C 99.816406 16.59375 101.308594 16.59375 102.847656 16.59375 C 102.847656 19.1875 102.847656 21.777344 102.847656 24.449219 C 105.5 24.449219 108.148438 24.449219 110.878906 24.449219 C 110.878906 21.859375 110.878906 19.265625 110.878906 16.59375 C 112.394531 16.59375 113.90625 16.59375 115.460938 16.59375 C 115.460938 23.292969 115.460938 29.988281 115.460938 36.886719 C 113.96875 36.886719 112.476562 36.886719 110.941406 36.886719 C 110.941406 34.078125 110.941406 31.269531 110.941406 28.378906 C 108.269531 28.378906 105.597656 28.378906 102.847656 28.378906 C 102.847656 31.183594 102.847656 33.992188 102.847656 36.886719 C 101.355469 36.886719 99.863281 36.886719 98.324219 36.886719 C 98.324219 30.191406 98.324219 23.492188 98.324219 16.59375 Z M 98.324219 16.59375 "/><path style=" stroke:none;fill-rule:nonzero;fill:#100937;fill-opacity:1;" d="M 21.507812 6.183594 C 21.597656 6.316406 21.597656 6.316406 21.683594 6.480469 C 21.71875 6.53125 21.75 6.585938 21.785156 6.640625 C 22.285156 7.449219 22.339844 8.238281 22.371094 9.167969 C 22.371094 9.246094 22.375 9.324219 22.378906 9.402344 C 22.40625 10.359375 22.421875 11.320312 22.4375 12.277344 C 22.441406 12.546875 22.445312 12.820312 22.449219 13.089844 C 22.457031 13.609375 22.46875 14.132812 22.476562 14.652344 C 22.484375 15.3125 22.496094 15.976562 22.507812 16.636719 C 22.511719 16.878906 22.515625 17.121094 22.519531 17.363281 C 22.519531 17.425781 22.523438 17.484375 22.523438 17.546875 C 22.53125 17.96875 22.535156 18.390625 22.542969 18.8125 C 22.566406 20.160156 22.585938 21.511719 22.609375 22.859375 C 22.613281 23.109375 22.621094 23.363281 22.625 23.617188 C 22.625 23.699219 22.625 23.78125 22.628906 23.863281 C 22.628906 24.019531 22.632812 24.175781 22.636719 24.335938 C 22.640625 24.707031 22.648438 25.082031 22.65625 25.453125 C 22.730469 29.699219 22.730469 29.699219 22.625 30.519531 C 22.617188 30.585938 22.609375 30.648438 22.601562 30.71875 C 22.445312 31.933594 22.144531 33.480469 21.148438 34.289062 C 20.878906 34.507812 20.644531 34.761719 20.421875 35.027344 C 19.398438 36.195312 18.222656 36.96875 16.628906 37.082031 C 16.15625 37.097656 15.707031 37.042969 15.246094 36.9375 C 15.054688 36.894531 14.863281 36.859375 14.667969 36.828125 C 13.925781 36.703125 13.261719 36.417969 12.582031 36.113281 C 12.402344 36.03125 12.222656 35.953125 12.042969 35.875 C 12.003906 35.855469 11.964844 35.839844 11.921875 35.820312 C 11.410156 35.597656 10.945312 35.484375 10.386719 35.4375 C 8.714844 35.300781 7.246094 34.519531 6.035156 33.375 C 5.992188 33.335938 5.945312 33.292969 5.898438 33.25 C 4.816406 32.226562 4.226562 30.84375 3.984375 29.390625 C 3.902344 28.929688 3.730469 28.574219 3.4375 28.210938 C 2.195312 26.527344 1.757812 24.34375 2.058594 22.289062 C 2.292969 20.828125 2.914062 19.457031 4.011719 18.445312 C 4.332031 18.144531 4.445312 17.867188 4.472656 17.433594 C 4.480469 17.355469 4.484375 17.277344 4.492188 17.195312 C 4.496094 17.136719 4.496094 17.136719 4.5 17.070312 C 4.648438 15.003906 5.324219 13.28125 6.863281 11.847656 C 7.511719 11.285156 8.253906 10.835938 9.023438 10.460938 C 9.628906 10.164062 10.085938 9.820312 10.558594 9.335938 C 11.554688 8.3125 12.648438 7.496094 13.949219 6.894531 C 14.050781 6.847656 14.050781 6.847656 14.15625 6.800781 C 15.9375 6 19.695312 5.007812 21.507812 6.183594 Z M 16.328125 8.207031 C 16.21875 8.234375 16.21875 8.234375 16.101562 8.265625 C 14.980469 8.605469 13.640625 9.195312 12.820312 10.050781 C 12.855469 10.058594 12.894531 10.066406 12.9375 10.074219 C 14.5 10.375 15.828125 10.765625 16.800781 12.121094 C 17.085938 12.5625 17.371094 13.023438 17.28125 13.558594 C 17.203125 13.78125 17.132812 13.976562 16.933594 14.109375 C 16.78125 14.164062 16.675781 14.164062 16.515625 14.148438 C 16.464844 14.144531 16.417969 14.140625 16.367188 14.136719 C 15.992188 14.039062 15.777344 13.785156 15.546875 13.488281 C 14.8125 12.585938 13.808594 12.09375 12.664062 11.921875 C 11.167969 11.78125 9.667969 12.164062 8.480469 13.105469 C 8.378906 13.195312 8.277344 13.289062 8.175781 13.382812 C 8.121094 13.429688 8.066406 13.480469 8.011719 13.53125 C 7.023438 14.464844 6.445312 15.714844 6.390625 17.074219 C 6.390625 17.359375 6.429688 17.625 6.480469 17.90625 C 6.539062 18.246094 6.570312 18.546875 6.429688 18.863281 C 6.25 19.058594 6.054688 19.214844 5.84375 19.378906 C 4.894531 20.144531 4.1875 21.25 4.023438 22.476562 C 3.90625 23.652344 4.089844 24.679688 4.546875 25.757812 C 4.585938 25.757812 4.625 25.757812 4.667969 25.757812 C 4.746094 25.667969 4.824219 25.574219 4.902344 25.476562 C 5.128906 25.1875 5.371094 24.914062 5.621094 24.644531 C 5.773438 24.480469 5.921875 24.316406 6.066406 24.148438 C 6.726562 23.394531 7.421875 22.753906 8.414062 22.484375 C 8.464844 22.472656 8.511719 22.460938 8.5625 22.445312 C 9.691406 22.195312 10.859375 22.375 11.851562 22.957031 C 12.210938 23.1875 12.570312 23.425781 12.699219 23.855469 C 12.710938 24.128906 12.675781 24.328125 12.535156 24.566406 C 12.292969 24.785156 12.089844 24.820312 11.765625 24.820312 C 11.515625 24.796875 11.285156 24.714844 11.046875 24.636719 C 10.152344 24.355469 9.304688 24.171875 8.414062 24.582031 C 7.265625 25.261719 6.324219 26.65625 5.914062 27.902344 C 5.652344 28.972656 6.089844 30.082031 6.640625 30.992188 C 7.410156 32.199219 8.546875 33.082031 9.945312 33.425781 C 10.296875 33.496094 10.648438 33.507812 11.007812 33.519531 C 11.84375 33.550781 12.441406 33.804688 13.167969 34.199219 C 14.230469 34.765625 15.414062 35.070312 16.605469 34.753906 C 18.121094 34.226562 19.550781 32.976562 20.257812 31.53125 C 20.527344 30.945312 20.535156 30.179688 20.34375 29.566406 C 20.296875 29.445312 20.25 29.328125 20.195312 29.210938 C 20.179688 29.171875 20.164062 29.132812 20.148438 29.097656 C 19.46875 27.5 18.445312 26.28125 16.832031 25.589844 C 16.554688 25.464844 16.347656 25.347656 16.152344 25.105469 C 16.113281 24.859375 16.121094 24.738281 16.242188 24.523438 C 16.53125 24.257812 16.890625 24.144531 17.28125 24.152344 C 18.25 24.257812 19.117188 24.75 19.945312 25.230469 C 20.085938 25.3125 20.226562 25.390625 20.375 25.460938 C 20.378906 23.347656 20.378906 21.230469 20.382812 19.113281 C 20.382812 18.867188 20.382812 18.617188 20.382812 18.367188 C 20.382812 18.316406 20.382812 18.265625 20.382812 18.214844 C 20.382812 17.410156 20.382812 16.605469 20.382812 15.800781 C 20.386719 14.972656 20.386719 14.148438 20.386719 13.320312 C 20.386719 12.8125 20.386719 12.300781 20.386719 11.792969 C 20.390625 11.441406 20.390625 11.09375 20.390625 10.742188 C 20.390625 10.542969 20.390625 10.339844 20.390625 10.140625 C 20.390625 9.921875 20.390625 9.703125 20.390625 9.484375 C 20.390625 9.417969 20.390625 9.355469 20.390625 9.289062 C 20.390625 8.707031 20.390625 8.707031 20.109375 8.214844 C 19.65625 7.882812 18.980469 7.945312 18.449219 7.945312 C 18.410156 7.945312 18.371094 7.945312 18.332031 7.945312 C 17.640625 7.945312 16.996094 8.019531 16.328125 8.207031 Z M 16.328125 8.207031 "/><path style=" stroke:none;fill-rule:nonzero;fill:#100937;fill-opacity:1;" d="M 155.867188 16.59375 C 157.359375 16.59375 158.851562 16.59375 160.386719 16.59375 C 160.386719 19.402344 160.386719 22.210938 160.386719 25.105469 C 160.425781 25.105469 160.464844 25.105469 160.507812 25.105469 C 160.519531 25.074219 160.535156 25.039062 160.546875 25.007812 C 160.652344 24.820312 160.789062 24.664062 160.929688 24.5 C 160.992188 24.433594 161.050781 24.363281 161.109375 24.292969 C 161.140625 24.257812 161.167969 24.222656 161.199219 24.1875 C 161.304688 24.0625 161.40625 23.9375 161.507812 23.808594 C 161.832031 23.402344 162.164062 23.003906 162.492188 22.601562 C 162.617188 22.453125 162.738281 22.308594 162.855469 22.160156 C 163.1875 21.753906 163.519531 21.355469 163.847656 20.953125 C 164.023438 20.738281 164.199219 20.527344 164.375 20.3125 C 164.445312 20.230469 164.511719 20.144531 164.582031 20.0625 C 164.617188 20.019531 164.652344 19.976562 164.6875 19.933594 C 165.832031 18.542969 165.832031 18.542969 165.9375 18.417969 C 166.003906 18.332031 166.074219 18.25 166.144531 18.167969 C 166.324219 17.945312 166.507812 17.722656 166.691406 17.503906 C 166.730469 17.457031 166.765625 17.410156 166.804688 17.363281 C 166.878906 17.273438 166.953125 17.1875 167.027344 17.097656 C 167.058594 17.058594 167.09375 17.019531 167.125 16.976562 C 167.167969 16.925781 167.167969 16.925781 167.214844 16.871094 C 167.285156 16.78125 167.347656 16.6875 167.410156 16.59375 C 167.570312 16.578125 167.71875 16.574219 167.882812 16.574219 C 167.929688 16.574219 167.980469 16.574219 168.03125 16.574219 C 168.191406 16.574219 168.351562 16.578125 168.515625 16.578125 C 168.625 16.578125 168.738281 16.578125 168.851562 16.578125 C 169.144531 16.578125 169.441406 16.582031 169.734375 16.582031 C 170.035156 16.585938 170.335938 16.585938 170.636719 16.585938 C 171.226562 16.589844 171.816406 16.589844 172.40625 16.59375 C 172.351562 16.671875 172.292969 16.746094 172.234375 16.824219 C 172.203125 16.867188 172.171875 16.910156 172.140625 16.953125 C 171.742188 17.476562 171.320312 17.980469 170.902344 18.492188 C 170.800781 18.617188 170.699219 18.742188 170.597656 18.867188 C 170.277344 19.265625 169.957031 19.660156 169.632812 20.054688 C 169.359375 20.386719 169.089844 20.71875 168.820312 21.054688 C 168.625 21.292969 168.429688 21.53125 168.234375 21.769531 C 168.070312 21.972656 167.90625 22.175781 167.742188 22.378906 C 167.675781 22.460938 167.609375 22.542969 167.542969 22.625 C 167.511719 22.664062 167.476562 22.703125 167.445312 22.746094 C 167.265625 22.96875 167.082031 23.191406 166.898438 23.414062 C 166.859375 23.460938 166.816406 23.511719 166.777344 23.566406 C 166.664062 23.699219 166.554688 23.832031 166.441406 23.964844 C 166.375 24.046875 166.308594 24.128906 166.242188 24.207031 C 166.210938 24.246094 166.175781 24.285156 166.144531 24.324219 C 165.972656 24.507812 165.972656 24.507812 165.929688 24.738281 C 165.996094 24.902344 166.078125 25.039062 166.171875 25.1875 C 166.230469 25.28125 166.230469 25.28125 166.289062 25.378906 C 166.332031 25.449219 166.375 25.515625 166.417969 25.585938 C 166.460938 25.65625 166.503906 25.726562 166.546875 25.796875 C 166.851562 26.285156 167.15625 26.769531 167.464844 27.257812 C 167.671875 27.582031 167.878906 27.910156 168.082031 28.238281 C 168.140625 28.328125 168.140625 28.328125 168.195312 28.421875 C 168.273438 28.542969 168.347656 28.667969 168.425781 28.789062 C 168.613281 29.089844 168.800781 29.386719 168.984375 29.6875 C 169.0625 29.804688 169.136719 29.925781 169.210938 30.042969 C 169.265625 30.132812 169.265625 30.132812 169.320312 30.222656 C 171.441406 33.613281 171.441406 33.613281 171.550781 33.792969 C 171.625 33.910156 171.699219 34.027344 171.773438 34.148438 C 171.964844 34.453125 172.160156 34.761719 172.351562 35.070312 C 172.390625 35.132812 172.429688 35.195312 172.46875 35.261719 C 172.542969 35.378906 172.621094 35.5 172.695312 35.621094 C 172.730469 35.675781 172.761719 35.730469 172.796875 35.785156 C 172.832031 35.839844 172.863281 35.894531 172.898438 35.949219 C 172.972656 36.0625 173.046875 36.179688 173.121094 36.296875 C 173.160156 36.355469 173.199219 36.414062 173.238281 36.472656 C 173.273438 36.527344 173.308594 36.582031 173.34375 36.636719 C 173.417969 36.765625 173.417969 36.765625 173.417969 36.886719 C 172.800781 36.925781 172.183594 36.957031 171.5625 36.976562 C 171.273438 36.984375 170.988281 36.996094 170.699219 37.015625 C 168.898438 37.136719 168.898438 37.136719 168.433594 36.8125 C 168.054688 36.460938 167.847656 35.976562 167.667969 35.5 C 167.503906 35.082031 167.273438 34.714844 167.03125 34.339844 C 166.984375 34.261719 166.9375 34.183594 166.890625 34.105469 C 166.851562 34.046875 166.816406 33.988281 166.777344 33.925781 C 166.5 33.464844 166.226562 33.003906 165.953125 32.542969 C 165.558594 31.878906 165.160156 31.214844 164.757812 30.558594 C 164.523438 30.171875 164.292969 29.789062 164.0625 29.402344 C 164.039062 29.355469 164.011719 29.3125 163.984375 29.269531 C 163.859375 29.054688 163.730469 28.839844 163.605469 28.621094 C 163.558594 28.546875 163.511719 28.46875 163.46875 28.390625 C 163.445312 28.355469 163.425781 28.316406 163.402344 28.28125 C 163.320312 28.136719 163.242188 28.019531 163.125 27.902344 C 162.816406 28.234375 162.511719 28.570312 162.207031 28.910156 C 162 29.140625 161.789062 29.367188 161.578125 29.597656 C 161.128906 30.082031 161.128906 30.082031 160.683594 30.578125 C 160.644531 30.617188 160.601562 30.65625 160.5625 30.699219 C 160.398438 30.953125 160.414062 31.167969 160.414062 31.460938 C 160.414062 31.550781 160.414062 31.550781 160.414062 31.640625 C 160.410156 31.832031 160.410156 32.027344 160.410156 32.21875 C 160.410156 32.355469 160.410156 32.488281 160.410156 32.621094 C 160.40625 32.976562 160.40625 33.328125 160.402344 33.683594 C 160.402344 34.105469 160.398438 34.53125 160.394531 34.953125 C 160.390625 35.597656 160.390625 36.242188 160.386719 36.886719 C 158.894531 36.886719 157.402344 36.886719 155.867188 36.886719 C 155.867188 30.191406 155.867188 23.492188 155.867188 16.59375 Z M 155.867188 16.59375 "/><path style=" stroke:none;fill-rule:nonzero;fill:#100937;fill-opacity:1;" d="M 144.144531 44.917969 C 145.617188 44.917969 147.089844 44.917969 148.605469 44.917969 C 148.609375 45.464844 148.609375 45.464844 148.609375 46.019531 C 148.613281 47.222656 148.617188 48.425781 148.625 49.628906 C 148.625 50.359375 148.628906 51.085938 148.632812 51.816406 C 148.632812 52.453125 148.636719 53.085938 148.636719 53.722656 C 148.640625 54.058594 148.640625 54.394531 148.640625 54.734375 C 148.644531 55.050781 148.644531 55.367188 148.644531 55.683594 C 148.644531 55.800781 148.648438 55.917969 148.648438 56.03125 C 148.648438 57.710938 148.726562 59.617188 149.914062 60.925781 C 150.730469 61.703125 151.792969 61.898438 152.886719 61.890625 C 153.914062 61.851562 154.816406 61.519531 155.542969 60.78125 C 156.929688 59.183594 156.667969 56.609375 156.667969 54.652344 C 156.667969 54.308594 156.671875 53.964844 156.671875 53.621094 C 156.675781 52.976562 156.675781 52.328125 156.679688 51.679688 C 156.679688 50.941406 156.683594 50.203125 156.683594 49.464844 C 156.691406 47.949219 156.695312 46.433594 156.699219 44.917969 C 158.132812 44.917969 159.566406 44.917969 161.042969 44.917969 C 161.046875 46.484375 161.046875 48.046875 161.046875 49.613281 C 161.050781 50.339844 161.050781 51.066406 161.050781 51.792969 C 161.050781 52.425781 161.054688 53.0625 161.054688 53.695312 C 161.054688 54.03125 161.054688 54.367188 161.054688 54.699219 C 161.0625 57.898438 161.027344 61.261719 158.683594 63.722656 C 157.273438 65.09375 155.238281 65.6875 153.300781 65.699219 C 153.25 65.699219 153.199219 65.699219 153.148438 65.699219 C 152.988281 65.699219 152.828125 65.699219 152.667969 65.699219 C 152.585938 65.699219 152.585938 65.699219 152.5 65.699219 C 151.707031 65.699219 150.933594 65.683594 150.152344 65.507812 C 150.105469 65.496094 150.058594 65.488281 150.007812 65.476562 C 149.324219 65.324219 148.699219 65.097656 148.070312 64.792969 C 148.011719 64.765625 147.953125 64.738281 147.894531 64.710938 C 146.308594 63.90625 145.277344 62.40625 144.71875 60.757812 C 144.269531 59.371094 144.125 57.984375 144.128906 56.53125 C 144.128906 56.402344 144.128906 56.277344 144.128906 56.148438 C 144.128906 55.804688 144.128906 55.464844 144.132812 55.121094 C 144.132812 54.761719 144.132812 54.402344 144.132812 54.042969 C 144.132812 53.363281 144.132812 52.6875 144.136719 52.007812 C 144.136719 51.234375 144.136719 50.460938 144.136719 49.6875 C 144.136719 48.097656 144.140625 46.507812 144.144531 44.917969 Z M 144.144531 44.917969 "/><path style=" stroke:none;fill-rule:nonzero;fill:#100937;fill-opacity:1;" d="M 76.367188 11.539062 C 82.691406 11.539062 89.015625 11.539062 95.527344 11.539062 C 95.527344 12.792969 95.527344 14.050781 95.527344 15.34375 C 93.113281 15.34375 90.699219 15.34375 88.210938 15.34375 C 88.210938 22.453125 88.210938 29.5625 88.210938 36.886719 C 86.71875 36.886719 85.226562 36.886719 83.6875 36.886719 C 83.679688 35.085938 83.671875 33.289062 83.664062 31.488281 C 83.664062 31.273438 83.664062 31.054688 83.660156 30.839844 C 83.660156 30.773438 83.660156 30.773438 83.660156 30.707031 C 83.660156 30.109375 83.65625 29.511719 83.652344 28.917969 C 83.648438 27.882812 83.644531 26.84375 83.640625 25.808594 C 83.640625 25.769531 83.640625 25.730469 83.640625 25.6875 C 83.632812 23.769531 83.625 21.851562 83.625 19.9375 C 83.625 19.863281 83.625 19.792969 83.625 19.71875 C 83.625 18.261719 83.628906 16.804688 83.628906 15.34375 C 81.230469 15.34375 78.835938 15.34375 76.367188 15.34375 C 76.367188 14.089844 76.367188 12.832031 76.367188 11.539062 Z M 76.367188 11.539062 "/><path style=" stroke:none;fill-rule:nonzero;fill:#100937;fill-opacity:1;" d="M 165.089844 44.917969 C 170.546875 44.917969 176.007812 44.917969 181.628906 44.917969 C 181.628906 46.15625 181.628906 47.394531 181.628906 48.667969 C 179.648438 48.667969 177.664062 48.667969 175.621094 48.667969 C 175.621094 54.125 175.621094 59.585938 175.621094 65.210938 C 174.128906 65.210938 172.636719 65.210938 171.097656 65.210938 C 171.097656 59.75 171.097656 54.292969 171.097656 48.667969 C 169.117188 48.667969 167.132812 48.667969 165.089844 48.667969 C 165.089844 47.429688 165.089844 46.195312 165.089844 44.917969 Z M 165.089844 44.917969 "/><path style=" stroke:none;fill-rule:nonzero;fill:#100937;fill-opacity:1;" d="M 121.828125 16.59375 C 123.320312 16.59375 124.8125 16.59375 126.351562 16.59375 C 126.351562 23.292969 126.351562 29.988281 126.351562 36.886719 C 124.859375 36.886719 123.367188 36.886719 121.828125 36.886719 C 121.828125 30.191406 121.828125 23.492188 121.828125 16.59375 Z M 121.828125 16.59375 "/><g clip-rule="nonzero" clip-path="url(#1b1540d184)"><path style=" stroke:none;fill-rule:nonzero;fill:#58585a;fill-opacity:1;" d="M 61.613281 0.589844 C 61.847656 0.589844 62.082031 0.589844 62.324219 0.589844 C 62.324219 25.074219 62.324219 49.5625 62.324219 74.789062 C 62.089844 74.789062 61.855469 74.789062 61.613281 74.789062 C 61.613281 50.304688 61.613281 25.816406 61.613281 0.589844 Z M 61.613281 0.589844 "/></g><path style=" stroke:none;fill-rule:nonzero;fill:#100937;fill-opacity:1;" d="M 19.394531 38.78125 C 19.496094 38.78125 19.496094 38.78125 19.597656 38.78125 C 19.710938 38.78125 19.710938 38.78125 19.824219 38.78125 C 19.941406 38.777344 19.941406 38.777344 20.0625 38.777344 C 20.324219 38.777344 20.582031 38.777344 20.84375 38.777344 C 20.933594 38.777344 21.023438 38.777344 21.113281 38.773438 C 21.535156 38.773438 21.957031 38.773438 22.382812 38.773438 C 22.867188 38.773438 23.355469 38.769531 23.839844 38.769531 C 24.21875 38.765625 24.59375 38.765625 24.972656 38.765625 C 25.195312 38.765625 25.421875 38.765625 25.644531 38.761719 C 25.855469 38.761719 26.070312 38.761719 26.28125 38.761719 C 26.394531 38.761719 26.507812 38.761719 26.621094 38.761719 C 27.117188 38.761719 27.617188 38.808594 28.003906 39.144531 C 28.335938 39.492188 28.417969 39.8125 28.429688 40.28125 C 28.371094 40.761719 28.179688 41.1875 27.953125 41.609375 C 27.914062 41.6875 27.914062 41.6875 27.871094 41.765625 C 27.464844 42.519531 27.015625 43.246094 26.5625 43.96875 C 26.53125 44.019531 26.5 44.074219 26.464844 44.125 C 26.417969 44.199219 26.417969 44.199219 26.375 44.269531 C 26.347656 44.308594 26.324219 44.347656 26.296875 44.390625 C 26.113281 44.621094 25.976562 44.730469 25.679688 44.769531 C 25.589844 44.773438 25.496094 44.773438 25.40625 44.773438 C 25.355469 44.773438 25.304688 44.773438 25.253906 44.773438 C 25.089844 44.773438 24.925781 44.773438 24.761719 44.773438 C 24.644531 44.773438 24.53125 44.773438 24.414062 44.773438 C 24.175781 44.777344 23.933594 44.777344 23.695312 44.773438 C 23.386719 44.773438 23.078125 44.773438 22.769531 44.777344 C 22.535156 44.777344 22.296875 44.777344 22.058594 44.777344 C 21.945312 44.777344 21.832031 44.777344 21.71875 44.777344 C 21.5625 44.78125 21.402344 44.78125 21.242188 44.777344 C 21.171875 44.777344 21.171875 44.777344 21.101562 44.78125 C 20.761719 44.773438 20.613281 44.683594 20.375 44.441406 C 20.296875 44.332031 20.296875 44.332031 20.25 44.230469 C 20.234375 44.191406 20.214844 44.152344 20.195312 44.113281 C 20.179688 44.070312 20.160156 44.03125 20.140625 43.988281 C 20.101562 43.902344 20.058594 43.816406 20.019531 43.730469 C 19.996094 43.691406 19.976562 43.648438 19.957031 43.605469 C 19.753906 43.203125 19.492188 42.847656 19.21875 42.492188 C 18.578125 41.664062 18.210938 40.875 18.324219 39.800781 C 18.375 39.46875 18.449219 39.199219 18.710938 38.972656 C 18.949219 38.808594 19.109375 38.78125 19.394531 38.78125 Z M 19.394531 38.78125 "/><path style=" stroke:none;fill-rule:nonzero;fill:#100937;fill-opacity:1;" d="M 12.222656 14.453125 C 12.386719 14.671875 12.421875 14.824219 12.414062 15.09375 C 12.410156 15.160156 12.410156 15.226562 12.410156 15.292969 C 12.402344 15.429688 12.398438 15.566406 12.394531 15.703125 C 12.378906 16.527344 12.609375 17.300781 13.179688 17.917969 C 13.847656 18.523438 14.585938 18.871094 15.496094 18.914062 C 15.65625 18.898438 15.804688 18.867188 15.957031 18.828125 C 16.429688 18.714844 16.785156 18.855469 17.222656 19.035156 C 17.1875 19.1875 17.152344 19.339844 17.117188 19.492188 C 17.109375 19.535156 17.097656 19.578125 17.089844 19.621094 C 17.007812 19.96875 16.894531 20.1875 16.585938 20.386719 C 15.570312 20.882812 14.644531 20.828125 13.582031 20.464844 C 12.402344 20.035156 11.441406 19.183594 10.890625 18.054688 C 10.535156 17.21875 10.371094 16.199219 10.660156 15.3125 C 10.839844 14.960938 11.125 14.625 11.480469 14.441406 C 11.730469 14.382812 11.976562 14.355469 12.222656 14.453125 Z M 12.222656 14.453125 "/><path style=" stroke:none;fill-rule:nonzero;fill:#100937;fill-opacity:1;" d="M 14.769531 28.402344 C 15.207031 28.714844 15.519531 29.085938 15.851562 29.507812 C 15.871094 29.527344 15.890625 29.546875 15.914062 29.566406 C 15.941406 29.929688 15.914062 30.109375 15.675781 30.398438 C 15.488281 30.523438 15.378906 30.554688 15.15625 30.550781 C 14.925781 30.5 14.765625 30.355469 14.582031 30.214844 C 14.015625 29.8125 13.445312 29.691406 12.757812 29.746094 C 12.371094 29.828125 12.015625 29.960938 11.664062 30.148438 C 11.335938 30.320312 11.109375 30.308594 10.746094 30.238281 C 10.558594 30.160156 10.558594 30.160156 10.488281 30.058594 C 10.371094 29.742188 10.398438 29.382812 10.507812 29.074219 C 10.90625 28.484375 11.425781 28.128906 12.117188 27.941406 C 13.054688 27.777344 13.960938 27.878906 14.769531 28.402344 Z M 14.769531 28.402344 "/></g></svg>