<?xml version="1.0" encoding="UTF-8"?>
<svg version="1.1" xmlns="http://www.w3.org/2000/svg" width="3841" height="2160">
<path d="M0 0 C0.80179688 0.73863281 1.60359375 1.47726562 2.4296875 2.23828125 C4.45913463 4.10270413 6.52784156 5.90024554 8.625 7.6875 C11.45534723 10.1305965 14.06562203 12.71693281 16.65332031 15.4152832 C22.90228211 21.88835018 29.27156535 26.17137547 37.34375 30.09765625 C69.50634622 45.74774612 95.58308129 69.45324785 107.57128906 103.84814453 C111.35619591 115.82105074 113.29567977 128.08693424 113.91796875 140.6171875 C113.95438477 141.32979736 113.99080078 142.04240723 114.02832031 142.77661133 C114.11912357 144.74745483 114.18352446 146.71946445 114.24609375 148.69140625 C115.08575397 155.57959233 117.61767456 159.70563767 122.6875 164.3125 C145.48948572 187.52975367 156.14975118 217.07561327 156 249.5 C155.99508545 250.7694043 155.9901709 252.03880859 155.98510742 253.34667969 C155.86188491 263.27778183 155.03444854 272.66600546 152.6875 282.3125 C152.52652832 283.00134277 152.36555664 283.69018555 152.19970703 284.39990234 C148.10152945 301.42643265 140.58235664 316.63723392 130.1171875 330.64404297 C124.59737639 338.20196394 122.79449652 345.76388301 121.375 354.9375 C116.24753883 384.38618356 97.52247845 410.83139103 73.47705078 428.078125 C56.100109 440.06418471 36.78224858 447.40724077 15.875 449.6875 C-0.59727667 451.5486023 -14.15113399 457.46794709 -29.14624023 464.35351562 C-38.44674589 468.57412757 -47.87697788 472.26391026 -58.12890625 473.03515625 C-61.47213892 473.45978866 -64.57215003 474.52113637 -67.7578125 475.59375 C-88.56552744 481.44790833 -109.84650974 475.51935533 -128.30859375 465.72265625 C-139.90971064 458.83607162 -149.19505855 448.69821762 -158.20874023 438.80615234 C-160.83667864 435.92627023 -163.45633359 433.11703671 -166.359375 430.51171875 C-185.15301955 413.40534892 -189.84439606 383.37157146 -191.53044891 359.18615341 C-191.84070384 351.7633577 -191.74338759 344.34457495 -191.6484375 336.91796875 C-191.63122928 334.37298965 -191.61545452 331.82800055 -191.60092163 329.28300476 C-191.54766955 321.13484325 -191.44733925 312.98744365 -191.3439846 304.83978939 C-191.30010532 301.31757127 -191.25938961 297.79531872 -191.21856952 294.27306402 C-190.902474 267.05361994 -190.50669276 239.83553792 -190.08944106 212.61748111 C-189.97153632 204.9091757 -189.85721559 197.20082357 -189.74511719 189.49243164 C-189.30284292 159.09851656 -188.83090885 128.70521748 -188.3125 98.3125 C-188.29343283 97.19183105 -188.27436565 96.07116209 -188.25472069 94.91653347 C-188.00415247 80.22146941 -187.74022554 65.52672131 -187.4577446 50.83223534 C-187.37669387 46.60597446 -187.29927587 42.37967297 -187.22520828 38.15328407 C-187.1385548 33.22451463 -187.04365488 28.2959696 -186.94256449 23.36747575 C-186.9071666 21.58026383 -186.87446946 19.79299572 -186.84489584 18.00567794 C-186.69587303 9.11467863 -186.33837604 0.30940925 -185.37808228 -8.53495789 C-185.29865871 -9.27108899 -185.21923514 -10.00722009 -185.1374048 -10.7656582 C-184.4135732 -16.87626431 -182.9884672 -22.16190402 -180.3125 -27.6875 C-180.03100098 -28.27080078 -179.74950195 -28.85410156 -179.45947266 -29.45507812 C-178.50666428 -31.38544315 -177.51298888 -33.288085 -176.5 -35.1875 C-176.03956299 -36.08807129 -176.03956299 -36.08807129 -175.56982422 -37.00683594 C-172.96867186 -41.62437526 -170.26925018 -43.0801969 -165.3125 -44.6875 C-108.58696415 -58.519206 -42.67914566 -38.32678225 0 0 Z " fill="#000000" transform="translate(965.3125,578.6875)"/>
<path d="M0 0 C1.25695679 0.00539291 1.25695679 0.00539291 2.53930664 0.01089478 C3.41727402 0.01074875 4.29524139 0.01060272 5.19981384 0.01045227 C8.11630685 0.01115172 11.03273683 0.01894561 13.94921875 0.02676392 C15.96561142 0.02862798 17.98200454 0.03005194 19.99839783 0.03105164 C25.31671388 0.03487772 30.6350028 0.04470878 35.95330811 0.05575562 C41.37576938 0.06596779 46.79823502 0.07054884 52.22070312 0.07559204 C62.86850153 0.08633097 73.51627976 0.10340847 84.1640625 0.12442017 C101.2788496 52.37616216 101.2788496 52.37616216 109.2890625 76.99942017 C114.1968936 92.0856461 119.11369759 107.16890888 124.0390625 122.24942017 C124.53865479 123.77913452 124.53865479 123.77913452 125.04833984 125.3397522 C127.41997995 132.60139555 129.79197698 139.8629223 132.1640625 147.12442017 C134.87264293 155.41600614 137.58106545 163.70764364 140.2890625 171.99942017 C140.78862457 173.52904388 140.78862457 173.52904388 141.29827881 175.08956909 C146.21362151 190.14099802 151.11961592 205.19544809 156.019104 220.25204468 C160.72479468 234.71254394 165.44206635 249.1692377 170.1640625 263.62442017 C175.45790234 279.8301557 180.7432461 296.03861983 186.01855469 312.25039673 C190.38681601 325.67395918 194.76459468 339.09438977 199.14794922 352.51303101 C200.15511957 355.59703646 201.16164854 358.68125049 202.16796875 361.76553345 C205.19326511 371.03655822 208.22175907 380.30646394 211.26757812 389.57077026 C212.58864399 393.59072255 213.90639284 397.61175776 215.22363281 401.63296509 C215.84637992 403.53111507 216.47070754 405.42874731 217.09667969 407.32583618 C217.95645651 409.93188943 218.81086664 412.53964385 219.6640625 415.14785767 C219.91945801 415.91725677 220.17485352 416.68665588 220.43798828 417.47937012 C221.41386424 420.47767699 222.1640625 422.94947977 222.1640625 426.12442017 C195.4340625 426.12442017 168.7040625 426.12442017 141.1640625 426.12442017 C137.12913901 412.86681441 133.1017155 399.63078424 129.31640625 386.30410767 C128.89255843 384.81782013 128.46852679 383.331585 128.04432678 381.84539795 C126.94840251 378.00405636 125.85485269 374.16204323 124.76190186 370.31985474 C123.66237678 366.45612016 122.56059812 362.5930284 121.45898438 358.72988892 C119.82810755 353.0100259 118.19854122 347.28979228 116.57006836 341.56924438 C113.77328023 331.75281602 110.96816044 321.93876296 108.1640625 312.12442017 C61.3040625 311.79442017 14.4440625 311.46442017 -33.8359375 311.12442017 C-34.1659375 313.43442017 -34.4959375 315.74442017 -34.8359375 318.12442017 C-35.3505291 320.1973282 -35.90766411 322.26006113 -36.50317383 324.31118774 C-36.84514801 325.49782516 -37.18712219 326.68446259 -37.53945923 327.90705872 C-37.91555353 329.19437836 -38.29172565 330.48167526 -38.66796875 331.76895142 C-39.06068 333.12558313 -39.45295328 334.48234169 -39.84481812 335.83921814 C-40.67676638 338.71674976 -41.51156406 341.59343234 -42.34872437 344.4694519 C-43.65215118 348.94736668 -44.94939459 353.42705632 -46.24536133 357.90713501 C-47.54357193 362.39413053 -48.84203455 366.88105108 -50.14268494 371.36734009 C-53.80063702 383.98586947 -57.4213152 396.61483781 -61.0234375 409.24942017 C-62.6115625 414.81817017 -64.1996875 420.38692017 -65.8359375 426.12442017 C-91.9059375 426.45442017 -117.9759375 426.78442017 -144.8359375 427.12442017 C-141.39055393 413.3428859 -141.39055393 413.3428859 -139.27075195 407.02822876 C-139.0323056 406.30586533 -138.79385925 405.58350189 -138.54818726 404.83924866 C-137.76920204 402.48243729 -136.98419917 400.12767821 -136.19921875 397.77285767 C-135.6419118 396.08978509 -135.08505281 394.40656412 -134.52861023 392.72320557 C-133.35067718 389.16185491 -132.17035411 385.60130998 -130.98803711 382.04141235 C-127.88091983 372.68464882 -124.79038328 363.32240088 -121.69921875 353.96035767 C-121.39409489 353.03667137 -121.08897102 352.11298508 -120.77460098 351.16130829 C-116.04520849 336.84152961 -111.39130363 322.50062956 -106.8359375 308.12442017 C-99.55171906 285.15454107 -91.98961215 262.27794492 -84.43511963 239.39590454 C-77.48149035 218.33259376 -70.5433425 197.26772872 -63.8359375 176.12442017 C-56.79198354 153.92428435 -49.50650377 131.80535256 -42.2109375 109.68692017 C-41.91475399 108.78891315 -41.61857048 107.89090614 -41.31341171 106.9656868 C-39.84257699 102.50630663 -38.37161974 98.04696687 -36.90065002 93.58763123 C-36.61620089 92.72529184 -36.33175175 91.86295246 -36.03868294 90.97448158 C-35.47006857 89.2506965 -34.90142831 87.52691996 -34.33276176 85.80315208 C-29.74568146 71.89773464 -25.17754874 57.98634829 -20.6484375 44.06192017 C-20.37720062 43.22849091 -20.10596375 42.39506165 -19.82650757 41.53637695 C-17.28308596 33.7175658 -14.75596967 25.89390168 -12.265625 18.05801392 C-11.68784302 16.24152344 -11.68784302 16.24152344 -11.09838867 14.38833618 C-10.41286488 12.22713796 -9.73041127 10.06496181 -9.05200195 7.90151978 C-8.76800537 7.00312378 -8.48400879 6.10472778 -8.19140625 5.17910767 C-7.95059326 4.41066528 -7.70978027 3.6422229 -7.46166992 2.85049438 C-6.09685352 -0.91433274 -3.62645874 0.00657111 0 0 Z M36.1640625 60.12442017 C35.83818398 61.39487434 35.83818398 61.39487434 35.50572205 62.69099426 C24.86529497 104.14831004 14.08886849 145.53425556 2.17163086 186.64657593 C1.07012135 190.44867875 -0.02881826 194.25151739 -1.12695312 198.05459595 C-1.32416804 198.73755234 -1.52138296 199.42050873 -1.72457409 200.12416077 C-2.72916434 203.60344021 -3.73335895 207.08283352 -4.73713684 210.56234741 C-5.13375007 211.93704468 -5.53037175 213.31173951 -5.92700195 214.68643188 C-6.1221555 215.36288757 -6.31730906 216.03934326 -6.51837635 216.73629761 C-7.67478422 220.74306773 -8.83492244 224.74873358 -9.99838448 228.75346088 C-10.88220644 231.79717314 -11.76299614 234.84176367 -12.64453125 237.88613892 C-12.96871033 238.99787979 -13.2928894 240.10962067 -13.62689209 241.25505066 C-14.06572723 242.7733976 -14.06572723 242.7733976 -14.51342773 244.32241821 C-14.89856789 245.64816109 -14.89856789 245.64816109 -15.29148865 247.00068665 C-15.91871527 249.08190978 -15.91871527 249.08190978 -15.8359375 251.12442017 C19.4740625 251.12442017 54.7840625 251.12442017 91.1640625 251.12442017 C88.13023046 238.84856466 88.13023046 238.84856466 84.7800293 226.68643188 C84.57209747 225.97196805 84.36416565 225.25750422 84.14993286 224.52138996 C83.70504257 222.9935459 83.25888206 221.46607119 82.81149864 219.93895531 C81.82556709 216.57138445 80.84796603 213.20140889 79.86967945 209.83161068 C79.07656226 207.09980513 78.28255116 204.36826033 77.48852539 201.63671875 C66.56600939 164.03838425 56.17151519 126.32105136 46.1628418 88.46963501 C45.92716146 87.57896049 45.69148111 86.68828596 45.44865894 85.7706213 C44.34397407 81.59505634 43.24176332 77.41888 42.14558411 73.24107361 C41.76115993 71.78250049 41.37669685 70.32393763 40.9921875 68.86538696 C40.6612207 67.60445724 40.33025391 66.34352753 39.98925781 65.04438782 C39.28887718 62.21811942 39.28887718 62.21811942 38.1640625 60.12442017 C37.5040625 60.12442017 36.8440625 60.12442017 36.1640625 60.12442017 Z " fill="#000000" transform="translate(1778.8359375,1102.8755798339844)"/>
<path d="M0 0 C0.74051102 -0.01022186 1.48102203 -0.02044373 2.24397278 -0.03097534 C4.68332572 -0.05869508 7.12154378 -0.05685985 9.56103516 -0.05224609 C11.26348284 -0.06002474 12.96592665 -0.06869506 14.66836548 -0.07821655 C18.23427925 -0.09312574 21.79979696 -0.09257055 25.36572266 -0.08203125 C29.92464013 -0.07044982 34.48193033 -0.10428636 39.04057884 -0.1507206 C42.55635987 -0.18025794 46.07175191 -0.18193039 49.58763504 -0.17570114 C51.26769862 -0.17672469 52.9477848 -0.1871465 54.62772751 -0.20732498 C69.37738136 -0.36273773 69.37738136 -0.36273773 73.87207031 3.09472656 C78.59835517 7.81270311 79.91976948 15.87739363 81.25146484 22.12426758 C81.40761261 22.84813219 81.56376038 23.5719968 81.72463989 24.31779671 C82.24606357 26.74145332 82.75887521 29.16685337 83.27197266 31.59228516 C83.65264293 33.36806742 84.03395003 35.14371326 84.41583252 36.91923523 C85.24864993 40.79580805 86.0780105 44.67309831 86.90478516 48.55096436 C88.97060547 58.23704521 91.05694047 67.91871651 93.14295959 77.60046387 C93.64993505 79.95351123 94.15671693 82.30660032 94.66331482 84.659729 C101.50017162 116.40990752 108.48441125 148.12768476 115.46723938 179.84601212 C116.62094716 185.08660171 117.77412008 190.32730895 118.92724109 195.56802768 C119.72801247 199.20727739 120.52894151 202.84649227 121.33023453 206.48562717 C122.73815726 212.88001509 124.14559903 219.27450389 125.54891229 225.66990525 C126.31010969 229.13864225 127.0720751 232.60721018 127.83447266 236.07568359 C127.98392318 236.75565049 128.13337371 237.43561739 128.28735304 238.13618934 C130.43295789 247.89115621 132.61936846 257.63633279 134.82948875 267.37686992 C135.75547989 271.46484055 136.67432963 275.55442286 137.59290028 279.64406645 C138.31379707 282.85013519 139.04146594 286.05443501 139.77865601 289.25680161 C140.58448251 292.758025 141.37324978 296.26271094 142.15869141 299.76855469 C142.51371735 301.2789501 142.51371735 301.2789501 142.87591553 302.81985855 C144.8719669 311.86820927 146.7284943 322.47518566 141.75036621 330.81173706 C139.49467824 333.8851578 136.97514418 336.55952694 134.24072266 339.20947266 C133.64386658 339.80304062 133.0470105 340.39660858 132.43206787 341.00816345 C130.53896756 342.88565518 128.63216782 344.74852855 126.72509766 346.61181641 C125.46120805 347.86419547 124.19817972 349.11744434 122.93603516 350.37158203 C121.70503002 351.58915354 120.47328273 352.80597525 119.24072266 354.02197266 C118.68209534 354.57321304 118.12346802 355.12445343 117.5479126 355.69239807 C114.67473766 358.49816273 111.74672183 361.20083121 108.70083618 363.81861877 C104.79312338 367.22746319 101.09797999 370.79706596 97.44824219 374.47851562 C96.47107491 375.45787331 96.47107491 375.45787331 95.47416687 376.45701599 C94.07573887 377.85921804 92.67846598 379.2625729 91.28226089 380.66698837 C89.07395154 382.88816032 86.86244635 385.10610619 84.65011597 387.32327271 C79.96394896 392.02080675 75.28175052 396.72228403 70.60009766 401.42431641 C65.15238816 406.89562408 59.70306573 412.36530506 54.24953842 417.83081436 C52.06821161 420.01863458 49.88990996 422.2094369 47.71170044 424.40036011 C46.38314257 425.73254811 45.05444545 427.06459726 43.72558594 428.39648438 C43.11884537 429.00839127 42.5121048 429.62029816 41.88697815 430.25074768 C38.24200146 433.8961874 36.37478021 435.6954151 31.22509766 435.86181641 C30.47744141 435.89919922 29.72978516 435.93658203 28.95947266 435.97509766 C21.58628393 434.71145368 16.04633486 427.39578555 11.04492188 422.36206055 C10.11412811 421.43316513 9.18333435 420.50426971 8.22433472 419.54722595 C5.68272333 417.01044171 3.14737367 414.46748429 0.61326742 411.92320561 C-2.04544375 409.25567839 -4.70945855 406.59345728 -7.37277222 403.93052673 C-11.84307887 399.45928501 -16.30950459 394.98419639 -20.7734375 390.5065918 C-25.92791471 385.33638599 -31.08760298 380.17142849 -36.25031674 375.00944811 C-41.75683275 369.50360858 -47.25953027 363.99396483 -52.76111746 358.48320079 C-54.34240995 356.89978133 -55.92440796 355.3170697 -57.50656509 353.73451424 C-60.45855949 350.78132492 -63.40626596 347.82389131 -66.35351562 344.8659668 C-67.66431091 343.55585129 -67.66431091 343.55585129 -69.00158691 342.2192688 C-70.20846664 341.00599159 -70.20846664 341.00599159 -71.43972778 339.76820374 C-72.13618471 339.07007096 -72.83264164 338.37193819 -73.55020332 337.65264988 C-79.86889671 330.92234861 -81.76343633 325.1191485 -81.67365646 316.06299973 C-81.40739459 311.56364187 -80.45797229 307.2284499 -79.515625 302.82910156 C-79.1926582 301.2688538 -79.1926582 301.2688538 -78.86316681 299.67708588 C-78.1470643 296.22898702 -77.41811762 292.78373968 -76.68896484 289.33837891 C-76.17708723 286.88799785 -75.66594395 284.4374633 -75.15548706 281.98678589 C-73.92496143 276.09048805 -72.68585025 270.19605771 -71.44216144 264.30252731 C-70.4339508 259.52420342 -69.42930596 254.74514241 -68.42700195 249.96557617 C-64.48195871 231.15540864 -60.51111833 212.3508004 -56.52490234 193.54931641 C-56.06131499 191.36112573 -55.59773237 189.17293406 -55.13415527 186.98474121 C-46.44460504 145.98798474 -37.45849588 105.0782831 -27.6089077 64.34275627 C-26.76923638 60.86937893 -25.93372545 57.39500795 -25.09912109 53.92041016 C-24.94026806 53.26121456 -24.78141502 52.60201897 -24.61774826 51.92284775 C-22.1440562 41.62459404 -20.01142597 31.29080506 -18.26237488 20.84410095 C-17.01055846 13.74879573 -15.53735204 7.59114571 -10.35954285 2.36283875 C-6.8527604 0.11929911 -4.03366235 -0.0289221 0 0 Z " fill="#000000" transform="translate(730.52490234375,1203.45068359375)"/>
<path d="M0 0 C25.41 0 50.82 0 77 0 C82.61 9.57 88.22 19.14 94 29 C98.81087782 37.14158422 98.81087782 37.14158422 103.625 45.28125 C107.9715563 52.63696067 112.28577237 60.01163521 116.60351562 67.38427734 C121.21963835 75.26571245 125.84752041 83.13995128 130.5 91 C137.26185769 102.42575671 143.97324524 113.88092612 150.68264771 125.33752441 C153.27832179 129.76933498 155.87684113 134.19946885 158.4765625 138.62890625 C159.58723411 140.52177907 160.69786026 142.41467854 161.80847168 144.30758667 C162.82281367 146.03607209 163.83766263 147.76425996 164.85253906 149.49243164 C165.84064281 151.17687915 166.82861855 152.86140929 167.81132507 154.54901123 C169.62100414 157.65669929 171.45057221 160.74957547 173.31469727 163.82495117 C182.78200815 179.60952039 190.7917526 196.16779142 198.97998047 212.63739014 C200.60815271 215.9073137 202.24388571 219.17342985 203.8796339 222.43956852 C205.45682506 225.5906224 207.03004149 228.74364671 208.60195351 231.89733696 C209.35167243 233.40062055 210.10246757 234.9033679 210.85436058 236.40556526 C211.89409254 238.48466035 212.92861562 240.56626234 213.96166992 242.64868164 C214.27166428 243.26619293 214.58165863 243.88370422 214.90104675 244.51992798 C217 248.77121119 217 248.77121119 217 251 C217.66 251 218.32 251 219 251 C218.88462891 250.26998779 218.76925781 249.53997559 218.65039062 248.7878418 C216.84829834 236.84007679 215.68609667 224.83410712 214.5 212.8125 C214.33425476 211.14201096 214.33425476 211.14201096 214.16516113 209.43777466 C210.72270008 174.66522926 208.82813682 140.15519353 208.89860606 105.20472407 C208.90498631 101.48793025 208.90545471 97.77113501 208.90663147 94.05433655 C208.90970257 87.06050784 208.91785714 80.06669532 208.92798096 73.07287365 C208.94139996 63.59070475 208.94667622 54.10853122 208.95248318 44.62635517 C208.96180142 29.75089139 208.9817479 14.87546173 209 0 C232.43 0 255.86 0 280 0 C280 112.53 280 225.06 280 341 C254.92 341 229.84 341 204 341 C184.62454017 309.08747793 184.62454017 309.08747793 178.45678711 298.64404297 C176.492982 295.31918043 174.52357923 291.99763331 172.5546875 288.67578125 C171.96992645 287.68887802 171.96992645 287.68887802 171.37335205 286.68203735 C167.77194026 280.60749634 164.13983232 274.55159114 160.5 268.5 C156.46197945 261.78638047 152.43884497 255.06438345 148.4453125 248.32421875 C147.85636703 247.33022316 147.85636703 247.33022316 147.25552368 246.31614685 C146.45106197 244.95822816 145.64662904 243.60029242 144.84222412 242.24234009 C144.44054016 241.56424286 144.0388562 240.88614563 143.625 240.1875 C143.22347717 239.50964447 142.82195435 238.83178894 142.40826416 238.13339233 C137.56443717 229.95960139 132.68974139 221.80668276 127.74121094 213.69580078 C124.88332638 209.01066258 122.03844803 204.31763528 119.19577026 199.6232605 C117.81912454 197.34994273 116.43854901 195.07920627 115.05496216 192.81008911 C102.62097061 172.35512795 91.80394721 151.23474579 81.21734619 129.77801514 C79.04518658 125.38138343 76.86085471 120.99080588 74.67773438 116.59960938 C70.44031744 108.07207939 66.21573818 99.53826583 62 91 C61.84189386 98.48369084 62.4653789 105.76331556 63.2421875 113.203125 C63.43870784 115.15014494 63.63522222 117.0971655 63.83143806 119.04421616 C64.2431578 123.11532555 64.6627034 127.18563535 65.08129883 131.25604248 C65.42279697 134.57932532 65.76225226 137.90279695 66.09719849 141.22674561 C66.34678656 143.6998717 66.60010077 146.17262713 66.85861206 148.64483643 C67.27356139 152.76075204 67.64655211 156.87840422 68 161 C68.08495853 161.97338003 68.16991707 162.94676006 68.2574501 163.94963646 C69.94312714 183.80960479 70.27472497 203.51549863 70.20278788 223.43171716 C70.19001559 227.58624066 70.18908971 231.74076934 70.18673706 235.89530945 C70.18059815 243.7106754 70.16429381 251.52598329 70.14403808 259.34132403 C70.11718631 269.93882595 70.10664489 280.53634452 70.09503365 291.13387203 C70.0764047 307.75595791 70.03650975 324.37792146 70 341 C46.9 341 23.8 341 0 341 C0 228.47 0 115.94 0 0 Z " fill="#000000" transform="translate(2601,712)"/>
<path d="M0 0 C201.75376884 0 201.75376884 0 234 31 C249.3869883 47.04059488 253.64752436 66.60632656 253.47070312 88.12841797 C252.93901679 108.29007679 245.40504641 125.86701709 231 140 C220.71225858 149.15859907 208.40711054 155.75634422 195 159 C195 159.33 195 159.66 195 160 C196.8871875 160.41958984 196.8871875 160.41958984 198.8125 160.84765625 C210.16283043 163.46679181 220.59343361 166.75061906 231 172 C232.06734375 172.53367187 233.1346875 173.06734375 234.234375 173.6171875 C251.89316475 183.17855293 263.04455568 197.97775801 269 217 C275.74498294 240.14162655 271.95564221 266.62889947 260.9296875 287.734375 C258.06943016 292.5748105 254.68104069 296.7683763 251 301 C250.21625 302.03125 249.4325 303.0625 248.625 304.125 C231.53681325 322.84063311 205.70762307 331.9338261 181.5625 337.1875 C180.86084717 337.3424292 180.15919434 337.4973584 179.4362793 337.65698242 C120.83836171 349.6990872 59.82247264 341 0 341 C0 228.47 0 115.94 0 0 Z M76 56 C76 83.72 76 111.44 76 140 C84.86875 140.061875 93.7375 140.12375 102.875 140.1875 C105.63472168 140.21481201 108.39444336 140.24212402 111.23779297 140.27026367 C132.52110712 140.39333385 156.22669389 140.18146335 173 125 C180.58981779 116.34846857 183.57651704 107.45970832 183.4375 96.0625 C183.42920166 95.18368164 183.42090332 94.30486328 183.41235352 93.39941406 C183.15866721 83.67447147 180.66750928 76.85452349 173.90234375 69.74609375 C159.13303183 56.189867 136.0341883 55.81511265 117.11328125 55.90234375 C115.53758362 55.90385437 115.53758362 55.90385437 113.93005371 55.90539551 C110.05752448 55.91057325 106.18501098 55.92453388 102.3125 55.9375 C89.2878125 55.9684375 89.2878125 55.9684375 76 56 Z M76 189 C76 220.68 76 252.36 76 285 C86.374375 285.061875 96.74875 285.12375 107.4375 285.1875 C110.67618896 285.21481201 113.91487793 285.24212402 117.25170898 285.27026367 C141.4365719 285.38934082 163.69363044 283.98133277 184.25 269.75 C193.78145032 260.21854968 198.32220582 249.26243473 198.4375 235.8125 C198.24497425 224.41174419 194.98384555 213.99434353 186.7734375 205.76953125 C164.18413183 186.65826153 132.08643017 188.70198538 104.375 188.875 C90.329375 188.936875 90.329375 188.936875 76 189 Z " fill="#000000" transform="translate(2053,1188)"/>
<path d="M0 0 C2.50350686 2.2697006 4.92727377 4.61257768 7.32348633 6.99487305 C8.02900635 7.69435059 8.02900635 7.69435059 8.7487793 8.40795898 C43.35260218 43.21484193 54.65205631 93.70803141 54.63522339 141.27584839 C54.37751782 190.89084107 40.46001431 237.36196632 6.32348633 273.99487305 C5.64801758 274.73608398 4.97254883 275.47729492 4.27661133 276.2409668 C-14.14475202 295.66650221 -40.76234534 309.04225941 -66.67651367 314.99487305 C-67.52906738 315.19097168 -68.38162109 315.38707031 -69.26000977 315.58911133 C-94.43073382 321.07348609 -123.4614866 321.79130213 -148.67651367 315.99487305 C-149.46574219 315.81794922 -150.2549707 315.64102539 -151.06811523 315.45874023 C-180.71294425 308.6447839 -206.03937504 295.45112242 -227.67651367 273.99487305 C-228.61237305 273.0719043 -229.54823242 272.14893555 -230.51245117 271.19799805 C-266.42254558 233.95027835 -276.66801445 180.15058396 -275.76538086 130.20239258 C-274.43901782 82.32943197 -258.94436681 35.9663104 -224.09838867 2.1706543 C-164.47258894 -51.39639482 -60.39922347 -53.19855305 0 0 Z M-138.67651367 29.99487305 C-139.59045898 30.28362305 -140.5044043 30.57237305 -141.44604492 30.86987305 C-148.56999503 33.38288852 -154.59079556 37.59096308 -160.67651367 41.99487305 C-161.63170898 42.66776367 -161.63170898 42.66776367 -162.60620117 43.35424805 C-184.58834876 60.39304187 -192.79693942 90.86983313 -196.27026367 117.0847168 C-199.90341162 152.83925858 -196.53196742 195.23324956 -173.73120117 224.51049805 C-173.0531543 225.3303418 -172.37510742 226.15018555 -171.67651367 226.99487305 C-170.9778418 227.8559668 -170.27916992 228.71706055 -169.55932617 229.60424805 C-156.12985382 245.37551451 -137.99862013 253.57831452 -117.67651367 255.99487305 C-95.50081044 257.42556358 -75.58538434 251.55528945 -58.67651367 236.99487305 C-57.87729492 236.30780273 -57.07807617 235.62073242 -56.25463867 234.9128418 C-35.70500455 215.81585423 -25.98124115 184.30982749 -24.56964111 156.92127991 C-24.5132666 154.74225283 -24.48620751 152.56521411 -24.47338867 150.38549805 C-24.46279922 149.18474388 -24.46279922 149.18474388 -24.45199585 147.95973206 C-24.07690291 123.79784558 -24.07690291 123.79784558 -27.67651367 99.99487305 C-27.97452881 98.76679932 -27.97452881 98.76679932 -28.27856445 97.51391602 C-32.26667278 81.69591333 -38.45638989 66.84115284 -48.67651367 53.99487305 C-49.33006836 53.16600586 -49.98362305 52.33713867 -50.65698242 51.4831543 C-62.44037678 37.46756865 -79.5253071 28.38132892 -97.67651367 25.99487305 C-111.79388153 24.86785629 -125.22769815 25.41113474 -138.67651367 29.99487305 Z " fill="#000000" transform="translate(2654.676513671875,1218.005126953125)"/>
<path d="M0 0 C25.08 0 50.16 0 76 0 C76 43.56 76 87.12 76 132 C120.55 132 165.1 132 211 132 C211 88.44 211 44.88 211 0 C236.41 0 261.82 0 288 0 C288 112.53 288 225.06 288 341 C262.92 341 237.84 341 212 341 C212 293.81 212 246.62 212 198 C167.12 198 122.24 198 76 198 C76 245.19 76 292.38 76 341 C50.92 341 25.84 341 0 341 C0 228.47 0 115.94 0 0 Z " fill="#000000" transform="translate(2022,712)"/>
<path d="M0 0 C1.55859375 2.28515625 1.55859375 2.28515625 3 5 C3.5671875 5.89976562 4.134375 6.79953125 4.71875 7.7265625 C13.07467197 21.32326009 14.04597982 34.5478149 14.51977539 50.18212891 C14.56101815 51.48600367 14.60226091 52.78987843 14.64475346 54.13326454 C15.13860698 70.23452175 15.38648888 86.34103635 15.64148235 102.44747686 C15.7140683 106.99529936 15.78968876 111.54307161 15.8649292 116.09085083 C16.00925995 124.84120033 16.15102721 133.59158935 16.29182637 142.34199631 C16.47089948 153.46435928 16.65305149 164.58667151 16.83520508 175.70898438 C16.90186243 179.78106653 16.96849429 183.8531491 17.03511047 187.92523193 C17.05157873 188.93179423 17.06804699 189.93835653 17.08501428 190.97542071 C17.20120896 198.08063234 17.31685631 205.18585275 17.43229675 212.29107666 C17.80053255 234.94372124 18.17641532 257.59621065 18.56629753 280.24849319 C18.6395163 284.50317123 18.7123325 288.75785609 18.78504944 293.01254272 C18.80844506 294.38084477 18.83184155 295.74914679 18.85523891 297.11744881 C18.90064273 299.77275648 18.94603974 302.42806427 18.99143314 305.08337212 C19.09868202 311.34781792 19.2067425 317.61224766 19.31661987 323.87664795 C20.56603341 395.21328506 20.56603341 395.21328506 18.8125 409 C18.68012939 410.10118164 18.54775879 411.20236328 18.41137695 412.33691406 C15.77495663 432.74733711 10.74894503 458.73731279 -5.9921875 472.359375 C-10.51381495 476.05409003 -14.45576932 480.32489961 -18.25 484.75 C-35.41641993 504.42302107 -55.19287207 517.38533608 -81.97265625 519.28125 C-89.93504524 519.55688232 -97.44542054 518.60648128 -105.22265625 516.84375 C-108.44968946 516.12292355 -111.66606872 515.54812949 -114.92919922 515.02197266 C-127.39252447 512.94626689 -138.53253988 508.15233143 -150 503 C-152.99686888 501.65950563 -155.99668888 500.3259978 -159 499 C-159.67530762 498.6999707 -160.35061523 498.39994141 -161.04638672 498.09082031 C-169.65318866 494.33581922 -177.49358421 492.44319596 -186.85424805 491.67724609 C-214.97028346 489.33353033 -239.65939792 476.21424953 -260 457 C-260.75023437 456.31421875 -261.50046875 455.6284375 -262.2734375 454.921875 C-280.47210682 437.68103038 -290.4096512 414.45404838 -294.48144531 390.05175781 C-295.85355938 382.29728171 -298.69929816 376.33938719 -303.625 370.1875 C-324.54407267 341.93114065 -331.85484822 305.18989333 -326.8125 270.6875 C-322.8538832 246.12353021 -312.47920661 223.0892225 -294.02246094 206.08081055 C-288.64889163 201.05412658 -286.70830205 196.40287735 -286.2265625 189.1171875 C-286.12665331 187.7813681 -286.02612492 186.4455949 -285.92504883 185.10986328 C-285.85273544 184.07252045 -285.85273544 184.07252045 -285.77896118 183.01422119 C-283.27947051 148.28492541 -271.92271992 119.32370526 -246.0625 95.1875 C-235.1523437 85.79119314 -222.70117038 78.24209773 -209.79296875 71.921875 C-199.61905778 66.88928567 -191.89707934 61.12709136 -184 53 C-167.23183182 35.82606189 -148.85149394 22.09820831 -127 12 C-125.29070312 11.19949219 -125.29070312 11.19949219 -123.546875 10.3828125 C-93.58728442 -3.06416653 -30.44866647 -19.72310881 0 0 Z M-87 34 C-88.8871875 34.50853516 -88.8871875 34.50853516 -90.8125 35.02734375 C-109.66861471 40.73700779 -132.19502585 50.63456341 -146 65 C-145.34628418 65.12528076 -144.69256836 65.25056152 -144.01904297 65.37963867 C-117.7067382 70.48062619 -95.43324634 76.99926265 -79.05078125 99.8125 C-74.29565263 107.20332848 -69.47496347 115.00228446 -71 124 C-72.30600075 127.70033546 -73.49962365 130.99123633 -76.8359375 133.234375 C-79.4005612 134.14171479 -81.17245228 134.1359937 -83.875 133.875 C-84.69742188 133.81054688 -85.51984375 133.74609375 -86.3671875 133.6796875 C-92.64810873 132.05820339 -96.29395421 127.745341 -100.125 122.8125 C-112.50845889 107.6112225 -129.33798395 99.33735969 -148.5859375 96.46484375 C-173.76644098 94.08880926 -198.94122692 100.55274484 -218.875 116.375 C-220.6048172 117.89252145 -222.31320377 119.43479798 -224 121 C-224.92296875 121.83144531 -225.8459375 122.66289063 -226.796875 123.51953125 C-243.41424598 139.19586326 -253.12965771 160.17227822 -254.015625 183.03515625 C-253.99672153 187.83191051 -253.34244678 192.31695134 -252.49609375 197.02734375 C-251.54596422 202.72063957 -251.01721841 207.76640547 -253.375 213.125 C-256.39175091 216.42906052 -259.68944663 219.00860135 -263.21484375 221.75 C-279.1551117 234.62741142 -291.02694194 253.22984555 -293.78466797 273.83691406 C-295.75132585 293.59268375 -292.70046588 310.85341033 -285 329 C-284.34 329 -283.68 329 -283 329 C-281.62787699 327.46804728 -280.3284554 325.87078919 -279.0625 324.25 C-275.1949851 319.41093546 -271.16069669 314.81354386 -266.94750977 310.2746582 C-264.40941743 307.53903511 -261.92177191 304.77641922 -259.5 301.9375 C-248.40476028 289.29469729 -236.6624762 278.50135551 -220 274 C-219.17757812 273.77699219 -218.35515625 273.55398438 -217.5078125 273.32421875 C-198.5726211 269.09401642 -178.91094708 272.11364961 -162.26171875 281.91796875 C-156.19062656 285.79328868 -150.15637028 289.81209905 -148 297 C-147.82107678 301.57880797 -148.39373924 304.98234802 -150.75 308.9375 C-154.81897551 312.66739421 -158.23444309 313.25333133 -163.70800781 313.20288086 C-167.90151957 312.83168271 -171.77156755 311.44122192 -175.75 310.125 C-190.78328381 305.42066039 -205.05862742 302.34690079 -220.03125 309.2421875 C-239.33817514 320.67391949 -255.16624112 344.07003738 -262 365 C-266.44803829 383.01180937 -259.05339615 401.62265783 -249.83447266 416.93603516 C-236.89542203 437.21270086 -217.77811373 452.09200515 -194.3125 457.875 C-188.35361438 459.01359714 -182.4817254 459.24092245 -176.4375 459.4375 C-162.38552987 459.9530322 -152.34147004 464.19876936 -140.10327148 470.84667969 C-122.26975792 480.38057138 -102.35225781 485.4535123 -82.3515625 480.16796875 C-56.89525845 471.29683249 -32.85957491 450.32733314 -21 426 C-16.47701772 416.14346515 -16.29983763 403.32585726 -19.5 393 C-20.28942785 390.98226659 -21.12781252 388.98336418 -22 387 C-22.26844727 386.36626465 -22.53689453 385.7325293 -22.81347656 385.07958984 C-34.26218201 358.23281931 -51.4517655 337.7968842 -78.51586914 326.12988281 C-83.22097273 324.06280977 -86.70000815 322.10216379 -90 318 C-90.65642395 313.91558434 -90.48449486 311.85271096 -88.4375 308.25 C-83.60665311 303.79075672 -77.53317101 301.86144988 -71 302 C-54.75037585 303.80551379 -40.16684142 312.01904177 -26.2578125 320.1171875 C-23.85959019 321.50321047 -21.48167011 322.78108782 -19 324 C-18.95422448 288.44881329 -18.91898177 252.89763174 -18.89786934 217.34642163 C-18.89536792 213.14948611 -18.89277928 208.95255066 -18.89013672 204.75561523 C-18.8896121 203.92007927 -18.88908748 203.08454331 -18.88854696 202.22368807 C-18.87984383 188.69396814 -18.86407435 175.16426519 -18.84569441 161.63455533 C-18.82699282 147.75232025 -18.81588273 133.87009407 -18.81182301 119.98784691 C-18.80907849 111.42144095 -18.80040939 102.85508301 -18.78416707 94.28869183 C-18.773597 88.41477858 -18.77039943 82.54089017 -18.77299725 76.6669681 C-18.77427851 73.27777831 -18.7712187 69.88874015 -18.76158905 66.49955368 C-18.75165532 62.82352336 -18.75402557 59.14769941 -18.75949097 55.47166443 C-18.75366528 54.4025888 -18.7478396 53.33351316 -18.74183738 52.2320413 C-18.75588708 42.45060405 -18.75588708 42.45060405 -23.5 34.1875 C-31.11449433 28.60331026 -42.43165879 29.61307176 -51.375 29.625 C-52.03307648 29.62521149 -52.69115295 29.62542297 -53.36917114 29.62564087 C-64.97891643 29.66272597 -75.81736949 30.87896323 -87 34 Z " fill="#000000" transform="translate(731,537)"/>
<path d="M0 0 C25.08 0 50.16 0 76 0 C76 47.19 76 94.38 76 143 C76.66 143 77.32 143 78 143 C78.22429688 142.46632813 78.44859375 141.93265625 78.6796875 141.3828125 C80.43903355 138.20766134 82.75351916 135.5992201 85.125 132.875 C86.1325451 131.70140833 87.13904984 130.52692273 88.14453125 129.3515625 C88.63646973 128.77696289 89.1284082 128.20236328 89.63525391 127.61035156 C91.40389693 125.52341608 93.1140091 123.39429871 94.8125 121.25 C100.23995688 114.40425707 105.83040641 107.69188979 111.39013672 100.95361328 C113.43318889 98.47431339 115.467712 95.9881283 117.5 93.5 C123.03702976 86.72455878 128.60489025 79.97452324 134.16943359 73.22167969 C137.11367588 69.6483795 140.0567964 66.07415572 143 62.5 C144.16666096 61.08332863 145.33332763 59.66666197 146.5 58.25 C147.0775 57.54875 147.655 56.8475 148.25 56.125 C167.5 32.75 167.5 32.75 169.25292969 30.62158203 C170.4100136 29.21645917 171.56691709 27.8111877 172.72363281 26.40576172 C175.78539003 22.68618484 178.85098814 18.96985689 181.921875 15.2578125 C182.56253906 14.48244141 183.20320313 13.70707031 183.86328125 12.90820312 C185.09390343 11.41897194 186.32562314 9.93064682 187.55859375 8.44335938 C188.11160156 7.77369141 188.66460938 7.10402344 189.234375 6.4140625 C189.96479004 5.53161865 189.96479004 5.53161865 190.70996094 4.63134766 C191.88455631 3.14598689 192.9495831 1.57562535 194 0 C196.72180044 -0.28631983 199.21520901 -0.37831034 201.93798828 -0.34057617 C202.75758026 -0.34101425 203.57717224 -0.34145233 204.42160034 -0.34190369 C207.13807778 -0.33980906 209.85394253 -0.31644665 212.5703125 -0.29296875 C214.45075137 -0.28737518 216.3311946 -0.28310396 218.2116394 -0.28010559 C223.1667279 -0.26863795 228.1215536 -0.23915435 233.07653809 -0.20599365 C238.1304163 -0.17533404 243.18433689 -0.16160906 248.23828125 -0.14648438 C258.15896979 -0.11428643 268.07946306 -0.06306699 278 0 C277.0394414 1.28342585 276.07851451 2.56657607 275.11743164 3.84960938 C274.58235489 4.56419312 274.04727814 5.27877686 273.49598694 6.01501465 C266.84441833 14.84080444 259.69751302 23.30955347 252.72314453 31.88134766 C251.01100811 33.98646524 249.30018031 36.09263866 247.58984375 38.19921875 C242.19200795 44.84741843 236.78595076 51.48850171 231.359375 58.11328125 C226.78950586 63.70456154 222.2411831 69.313385 217.68945312 74.91943359 C214.42222558 78.94303375 211.15335239 82.96529698 207.88476562 86.98779297 C205.12573597 90.38332977 202.36714835 93.779224 199.609375 97.17578125 C198.48961218 98.55471093 197.3698208 99.93361741 196.25 101.3125 C195.7041626 101.98466553 195.1583252 102.65683105 194.59594727 103.34936523 C191.55273504 107.09503495 188.49987905 110.83246714 185.4375 114.5625 C184.74785156 115.41070313 184.05820313 116.25890625 183.34765625 117.1328125 C181.49700376 119.39301039 179.62716101 121.6325035 177.74609375 123.8671875 C176.62201558 125.22364331 175.49831529 126.58041236 174.375 127.9375 C173.82900146 128.57695557 173.28300293 129.21641113 172.72045898 129.87524414 C169.88634429 132.96852448 169.88634429 132.96852448 169.16333008 136.8671875 C170.23140289 139.58988494 171.63134601 141.92472939 173.17578125 144.41015625 C174.16106812 146.0036792 174.16106812 146.0036792 175.16625977 147.62939453 C175.88150819 148.77386615 176.59692557 149.91823219 177.3125 151.0625 C178.04717693 152.24569307 178.78146707 153.42912638 179.51538086 154.61279297 C184.61756787 162.83053807 189.7725153 171.01510561 194.953125 179.18359375 C198.42988014 184.67013324 201.87195309 190.17820548 205.3125 195.6875 C206.25814819 197.20174561 206.25814819 197.20174561 207.22290039 198.74658203 C208.5076015 200.80412772 209.79218745 202.86174532 211.07666016 204.91943359 C214.21589223 209.94746487 217.35807151 214.97365341 220.5 220 C221.75001464 221.99999085 223.00001462 223.99999086 224.25 226 C225.178125 227.485 225.178125 227.485 226.125 229 C261.75 286 261.75 286 263.62695312 289.00317383 C264.87038413 290.99263102 266.11387321 292.9820519 267.35742188 294.97143555 C270.58341764 300.13243638 273.80824213 305.29416388 277.03125 310.45703125 C277.69576172 311.52115234 278.36027344 312.58527344 279.04492188 313.68164062 C280.30181276 315.69442393 281.55835245 317.70742659 282.81445312 319.72070312 C283.39130859 320.64431641 283.96816406 321.56792969 284.5625 322.51953125 C285.12195312 323.41623535 285.68140625 324.31293945 286.2578125 325.23681641 C287.48941105 327.19018418 288.73567305 329.13434294 289.9921875 331.07177734 C290.63414062 332.06258301 291.27609375 333.05338867 291.9375 334.07421875 C292.52402344 334.97100342 293.11054688 335.86778809 293.71484375 336.79174805 C295 339 295 339 295 341 C284.60623297 341.67640221 274.21778645 342.18919779 263.80638981 342.50255299 C258.96850461 342.6531198 254.14578661 342.85631567 249.31665039 343.18774414 C218.995334 345.214548 218.995334 345.214548 211.23268127 339.75762558 C204.86874043 333.82723844 201.38507236 325.70514293 198.32487011 317.71510124 C195.61926353 310.66722917 191.68341875 304.52287977 187.625 298.1875 C186.83048448 296.89350789 186.0392154 295.59750231 185.25439453 294.29760742 C184.63677246 293.28545166 184.01915039 292.2732959 183.3828125 291.23046875 C178.69135407 283.524829 174.0942856 275.76382881 169.5 268 C162.89032345 256.83190855 156.2062766 245.7133909 149.44702148 234.63525391 C145.5184101 228.18443982 141.63046896 221.71179271 137.78515625 215.2109375 C137.34855682 214.47313049 136.9119574 213.73532349 136.46212769 212.97515869 C134.32552475 209.36248461 132.19325403 205.74733153 130.06640625 202.12890625 C129.29564047 200.8228768 128.52481047 199.51688524 127.75390625 198.2109375 C127.40264175 197.61026459 127.05137726 197.00959167 126.68946838 196.39071655 C125.27205493 193.99429338 123.97839092 191.97839092 122 190 C116.82996553 195.62422441 111.66118021 201.24834764 106.5625 206.9375 C103.07551582 210.82370956 99.54652576 214.66828166 96 218.5 C88.4210973 226.67877066 88.4210973 226.67877066 81 235 C80.31129822 235.66783005 79.62259644 236.3356601 78.9130249 237.02372742 C76.17822158 241.2785179 76.42716566 244.87829386 76.45410156 249.83911133 C76.43859505 251.31787247 76.43859505 251.31787247 76.42277527 252.82650757 C76.39332495 256.07851508 76.39184759 259.3299008 76.390625 262.58203125 C76.37564491 264.83934213 76.35891813 267.09664204 76.34051514 269.35392761 C76.2968105 275.29031881 76.27683546 281.22656216 76.26177979 287.16308594 C76.23878011 294.2884556 76.18634688 301.41366197 76.13883972 308.53890228 C76.06999443 319.35931088 76.03856977 330.1792503 76 341 C50.92 341 25.84 341 0 341 C0 228.47 0 115.94 0 0 Z " fill="#000000" transform="translate(2989,712)"/>
<path d="M0 0 C24.75 0 49.5 0 75 0 C75.029729 9.1579834 75.029729 9.1579834 75.06005859 18.50097656 C75.12709202 38.71728728 75.20463255 58.93354774 75.28752708 79.14979935 C75.3375104 91.40177429 75.38395419 103.65374301 75.421875 115.90576172 C75.45496098 126.5927013 75.49488208 137.27959052 75.54279006 147.96647429 C75.56789107 153.61772523 75.58971943 159.26894346 75.60334396 164.92023468 C75.61631483 170.25539865 75.63852572 175.59044953 75.66738319 180.92555046 C75.67634307 182.86833143 75.68212151 184.81113054 75.68421364 186.75393105 C75.71995936 214.94345038 77.03164346 247.00827179 97 269 C110.70603899 282.05680556 128.58636456 285.37907733 146.92578125 285.21484375 C164.20017755 284.5445189 179.37469321 278.95548873 191.5625 266.5625 C214.90830272 239.71482687 210.46978534 196.49333683 210.50611091 163.56529427 C210.51559509 157.79979604 210.54180518 152.03437223 210.56611633 146.2689209 C210.60951208 135.38995005 210.6382234 124.51099386 210.66143972 113.63196325 C210.68863713 101.23014807 210.73253866 88.82840877 210.77772844 76.42664814 C210.87018838 50.95112916 210.93984074 25.47561715 211 0 C235.09 0 259.18 0 284 0 C284.04530646 26.29691376 284.08208157 52.59379548 284.10362434 78.89073849 C284.11389695 91.10336145 284.12787961 103.31595828 284.15087891 115.52856445 C284.17093668 126.18438711 284.18374554 136.84019081 284.18817699 147.49603182 C284.19076359 153.12790657 284.19675743 158.75972716 284.21146011 164.3915844 C284.34606576 218.11788551 283.73757094 274.64357334 244.375 316 C220.64789566 339.04093238 186.4477333 349.02052072 153.890625 349.203125 C153.04974335 349.21013931 152.20886169 349.21715363 151.34249878 349.22438049 C148.64494408 349.24178317 145.94760877 349.24823224 143.25 349.25 C141.86890045 349.25101212 141.86890045 349.25101212 140.4598999 349.25204468 C127.09810101 349.23646334 114.08996009 348.93786054 101 346 C100.20094238 345.82839355 99.40188477 345.65678711 98.57861328 345.47998047 C87.09251564 342.95037148 76.56244539 339.14254727 66 334 C65.02804688 333.53980469 64.05609375 333.07960938 63.0546875 332.60546875 C36.37607894 319.11060407 19.0689391 293.898794 9.6875 266.1875 C2.09443748 242.84306747 -0.31855528 219.57968164 -0.22705078 195.15014648 C-0.22648529 193.00973516 -0.22680592 190.86932345 -0.22793579 188.72891235 C-0.22850492 182.9718034 -0.21682259 177.21477938 -0.20278788 171.45769 C-0.19020644 165.4212658 -0.18910421 159.38483922 -0.18673706 153.34840393 C-0.18054394 141.94146843 -0.16416271 130.53457169 -0.14403808 119.12765318 C-0.12161127 106.13113922 -0.11066866 93.13462331 -0.10064721 80.13809478 C-0.07979437 53.42537014 -0.04314549 26.71269858 0 0 Z " fill="#000000" transform="translate(2792,1188)"/>
<path d="M0 0 C106.26 0 212.52 0 322 0 C322 21.12 322 42.24 322 64 C281.41 64 240.82 64 199 64 C199 183.46 199 302.92 199 426 C173.92 426 148.84 426 123 426 C122.87024474 395.76909408 122.74228962 365.53818214 122.61781773 335.30725413 C122.60281366 331.66365763 122.5877899 328.02006121 122.57275391 324.37646484 C122.56826798 323.28929368 122.56826798 323.28929368 122.56369144 322.18015946 C122.52222403 312.14023484 122.47971481 302.10031514 122.43630803 292.06039873 C122.36109153 274.66267246 122.28809699 257.26493821 122.21875 239.8671875 C122.21600838 239.18054264 122.21326676 238.49389778 122.21044207 237.7864455 C122.08208728 205.57412763 121.98261736 173.36200415 121.96875 141.14941406 C121.96823135 139.94534645 121.96771271 138.74127883 121.96717834 137.50072432 C121.95863446 113.00047511 121.98360365 88.50024422 122 64 C81.74 64 41.48 64 0 64 C0 42.88 0 21.76 0 0 Z " fill="#000000" transform="translate(1653,627)"/>
<path d="M0 0 C91.74 0 183.48 0 278 0 C278 20.79 278 41.58 278 63 C244.67 63 211.34 63 177 63 C177 154.74 177 246.48 177 341 C151.92 341 126.84 341 101 341 C101 249.26 101 157.52 101 63 C67.67 63 34.34 63 0 63 C0 42.21 0 21.42 0 0 Z " fill="#000000" transform="translate(3144,1188)"/>
<path d="M0 0 C25.08 0 50.16 0 76 0 C76 112.53 76 225.06 76 341 C50.92 341 25.84 341 0 341 C0 228.47 0 115.94 0 0 Z " fill="#000000" transform="translate(2417,712)"/>
<path d="M0 0 C3.96 0 7.92 0 12 0 C12 411.51 12 823.02 12 1247 C8.04 1247 4.08 1247 0 1247 C0 835.49 0 423.98 0 0 Z " fill="#58585A" transform="translate(1405,443)"/>
<path d="M0 0 C1.71144951 -0.01073296 1.71144951 -0.01073296 3.45747375 -0.02168274 C5.33694954 -0.02571609 5.33694954 -0.02571609 7.25439453 -0.02983093 C9.23290657 -0.03968773 9.23290657 -0.03968773 11.25138855 -0.04974365 C15.62998236 -0.07077647 20.00857646 -0.08114967 24.38720703 -0.09111023 C25.89728819 -0.09515897 27.40736916 -0.09927593 28.91744995 -0.10346031 C36.01720563 -0.1225153 43.11695093 -0.13674209 50.21672726 -0.14507228 C58.394643 -0.15482703 66.5722868 -0.18109882 74.75010681 -0.22157317 C81.08065002 -0.25182166 87.41111571 -0.26654965 93.74172974 -0.26985329 C97.51761953 -0.2721951 101.29321893 -0.28104027 105.06903076 -0.30631447 C108.62812909 -0.32975183 112.18674915 -0.33376646 115.74590492 -0.32355309 C117.65821584 -0.32282872 119.57050331 -0.34181233 121.48271179 -0.36161804 C129.78702757 -0.3120586 138.23414553 0.42805622 144.74720764 6.09015942 C150.28333111 11.94288628 151.70103389 17.30333951 151.87548828 25.19404602 C150.88301622 33.26188345 147.69278549 40.4218205 143.88720703 47.52217102 C143.19171753 48.83556458 143.19171753 48.83556458 142.48217773 50.17549133 C135.68498634 62.79432602 128.13139813 75.01152006 120.51220703 87.14717102 C119.96129395 88.03340149 119.41038086 88.91963196 118.84277344 89.8327179 C118.08552979 91.01704407 118.08552979 91.01704407 117.31298828 92.22529602 C116.88800049 92.89464172 116.4630127 93.56398743 116.02514648 94.25361633 C112.92977037 98.12770656 110.67411629 99.99240121 105.64845276 100.66183472 C104.11701046 100.68852038 102.58508881 100.69333299 101.0534668 100.68061829 C100.21381378 100.68923386 99.37416077 100.69784943 98.50906372 100.70672607 C95.74026445 100.7293832 92.97247758 100.72264755 90.20361328 100.71357727 C88.27456868 100.71881319 86.34552665 100.72508956 84.41648865 100.73236084 C80.37559961 100.74276474 76.33506272 100.73820402 72.29418945 100.72358704 C67.12108414 100.70640436 61.94909005 100.72988816 56.77610874 100.76507664 C52.79286874 100.78706003 48.8098942 100.78560678 44.82661247 100.77731133 C42.91966471 100.77649222 41.01269737 100.78334775 39.10580635 100.79808235 C36.43662798 100.81554471 33.76944084 100.80097253 31.1003418 100.77827454 C29.92421074 100.79581284 29.92421074 100.79581284 28.72431946 100.81370544 C23.00403188 100.71496192 20.53207389 99.21782433 16.51220703 95.14717102 C15.20776367 93.28535461 15.20776367 93.28535461 14.42236328 91.54560852 C14.11717773 90.89656555 13.81199219 90.24752258 13.49755859 89.57881165 C13.19301758 88.90012024 12.88847656 88.22142883 12.57470703 87.52217102 C11.88756743 86.08002617 11.19613539 84.63991892 10.50048828 83.20185852 C10.16355957 82.50415344 9.82663086 81.80644836 9.47949219 81.08760071 C6.10067294 74.30949486 1.66571708 68.31201146 -2.95214844 62.34541321 C-13.69180127 48.41306798 -19.85494932 35.1664064 -17.95654297 17.13154602 C-17.0809183 11.55673563 -15.87370353 7.05142395 -11.48779297 3.20967102 C-7.45607535 0.43786516 -4.77640742 0.02055096 0 0 Z " fill="#000000" transform="translate(695.48779296875,1084.8528289794922)"/>
<path d="M0 0 C2.7344127 3.70791656 3.3474527 6.22522679 3.1875 10.7890625 C3.16429687 11.89636719 3.14109375 13.00367188 3.1171875 14.14453125 C3.03985074 16.44143293 2.96174197 18.73830875 2.8828125 21.03515625 C2.59464758 34.88308136 6.50536577 47.84885642 16.05078125 58.24609375 C27.32638475 68.39187726 39.73027016 74.2277378 55 75 C57.67332288 74.69068991 60.16772307 74.17622942 62.77734375 73.53125 C70.69908638 71.63782821 76.69482213 73.99198558 84 77 C83.43289116 79.56707248 82.84713469 82.12739643 82.25 84.6875 C82.09273437 85.40873047 81.93546875 86.12996094 81.7734375 86.87304688 C80.39157671 92.69280674 78.50302399 96.39531168 73.30078125 99.73046875 C56.21983735 108.0588244 40.66673593 107.14657905 22.80444336 100.99975586 C3.02356395 93.78085144 -13.11969775 79.50966491 -22.375 60.5 C-28.34570146 46.46885157 -31.14055748 29.32629074 -26.23828125 14.43359375 C-23.23708449 8.53534271 -18.4537178 2.88673279 -12.5 -0.1875 C-8.25657212 -1.17258147 -4.12227026 -1.66169034 0 0 Z " fill="#000000" transform="translate(575,676)"/>
<path d="M0 0 C7.37466648 5.20025327 12.59496605 11.49134705 18.19921875 18.55078125 C18.52921875 18.88078125 18.85921875 19.21078125 19.19921875 19.55078125 C19.71539401 25.64164932 19.25552068 28.68321893 15.19921875 33.55078125 C12.09855652 35.61788941 10.19906255 36.14749316 6.49609375 36.06640625 C2.64489832 35.20185217 -0.04513826 32.79619391 -3.140625 30.4375 C-12.71017025 23.65028949 -22.26686104 21.6441849 -33.80078125 22.55078125 C-40.34875523 23.93883103 -46.2736513 26.16666988 -52.17578125 29.30078125 C-57.6844288 32.19304369 -61.55062898 31.99343416 -67.61328125 30.80078125 C-70.80078125 29.55078125 -70.80078125 29.55078125 -71.98046875 27.80859375 C-73.90873561 22.50126877 -73.49261368 16.48062961 -71.61328125 11.23828125 C-64.93917237 1.34218878 -56.19487507 -4.59279959 -44.5859375 -7.7890625 C-28.82024285 -10.53870378 -13.59792695 -8.82441958 0 0 Z " fill="#000000" transform="translate(617.80078125,910.44921875)"/>
</svg>
